<?xml version="1.0" encoding="UTF-8"?><svg id="Layer_2" xmlns="http://www.w3.org/2000/svg" xmlns:xlink="http://www.w3.org/1999/xlink" viewBox="0 0 166 166"><defs><clipPath id="clippath"><rect width="166" height="166" style="fill:none;"/></clipPath></defs><g id="Layer_1-2"><g style="clip-path:url(#clippath);"><path d="M46.11458,0C20.65104,0,0,20.64583,0,46.10938V119.88542c0,25.46354,20.65104,46.11458,46.11458,46.11458H119.89063c25.46354,0,46.10938-20.65104,46.10938-46.11458V46.10938C166,20.64583,145.35417,0,119.89063,0H46.11458Zm92.21875,18.44271c5.09375,0,9.22396,4.13021,9.22396,9.22396,0,5.08854-4.13021,9.21875-9.22396,9.21875-5.08854,0-9.21875-4.13021-9.21875-9.21875,0-5.09375,4.13021-9.22396,9.21875-9.22396Zm-55.33333,18.44271c25.46354,0,46.11458,20.65104,46.11458,46.11458,0,25.45833-20.65104,46.10938-46.11458,46.10938-25.45833,0-46.10938-20.65104-46.10938-46.10938,0-25.46354,20.65104-46.11458,46.10938-46.11458Zm0,18.44792c-.90625,0-1.80729,.04167-2.70833,.13021s-1.79688,.22396-2.6875,.40104-1.76563,.39583-2.63542,.65625c-.86458,.26563-1.71875,.56771-2.55208,.91667-.83854,.34896-1.65625,.73438-2.45833,1.16146-.79688,.42708-1.57292,.89063-2.32813,1.39583-.75,.50521-1.47917,1.04167-2.18229,1.61458-.69792,.57813-1.36979,1.18229-2.01042,1.82813-.64063,.64063-1.24479,1.30729-1.82292,2.01042-.57292,.69792-1.11458,1.42708-1.61458,2.17708-.50521,.75521-.96875,1.53125-1.39583,2.33333-.42708,.79688-.81771,1.61458-1.16146,2.45313-.34896,.83854-.65104,1.6875-.91667,2.55729-.26042,.86458-.48438,1.74479-.66146,2.63021-.17188,.89063-.30729,1.78646-.39583,2.6875s-.13542,1.80729-.13542,2.71354,.04688,1.80729,.13542,2.70833,.22396,1.79688,.39583,2.6875c.17708,.89063,.40104,1.76563,.66146,2.63542,.26563,.86458,.56771,1.71875,.91667,2.55208,.34375,.83854,.73438,1.65625,1.16146,2.45833,.42708,.79688,.89063,1.57292,1.39583,2.32813,.5,.75521,1.04167,1.47917,1.61458,2.18229,.57813,.69792,1.18229,1.36979,1.82292,2.01042s1.3125,1.25,2.01042,1.82292c.70313,.57292,1.43229,1.11458,2.18229,1.61458,.75521,.50521,1.53125,.96875,2.32813,1.39583,.80208,.42708,1.61979,.81771,2.45833,1.16146,.83333,.34896,1.6875,.65104,2.55208,.91667,.86979,.26042,1.74479,.48438,2.63542,.66146s1.78646,.30729,2.6875,.39583,1.80208,.13542,2.70833,.13542,1.8125-.04688,2.71354-.13542,1.79688-.21875,2.6875-.39583c.88542-.17708,1.76563-.40104,2.63021-.66146,.86979-.26563,1.71875-.56771,2.55729-.91667,.83854-.34375,1.65625-.73438,2.45313-1.16146,.80208-.42708,1.57813-.89063,2.33333-1.39583,.75-.5,1.47917-1.04167,2.17708-1.61458,.70313-.57292,1.375-1.18229,2.01563-1.82292s1.24479-1.3125,1.82292-2.01042c.57292-.70313,1.11458-1.42708,1.61458-2.18229,.50521-.75521,.96875-1.53125,1.39583-2.32813,.42708-.80208,.8125-1.61979,1.16146-2.45833,.34896-.83333,.65104-1.6875,.91667-2.55208,.26042-.86979,.47917-1.74479,.65625-2.63542s.3125-1.78646,.40104-2.6875,.13021-1.80208,.13021-2.70833-.04167-1.8125-.13021-2.71354-.22396-1.79688-.40104-2.6875c-.17708-.88542-.39583-1.76563-.65625-2.63021-.26563-.86979-.56771-1.71875-.91667-2.55729s-.73438-1.65625-1.16146-2.45313c-.42708-.80208-.89063-1.57813-1.39583-2.33333-.5-.75-1.04167-1.47917-1.61458-2.17708-.57813-.70313-1.18229-1.36979-1.82292-2.01042-.64063-.64583-1.3125-1.25-2.01563-1.82813-.69792-.57292-1.42708-1.10938-2.17708-1.61458-.75521-.50521-1.53125-.96875-2.33333-1.39583-.79688-.42708-1.61458-.8125-2.45313-1.16146s-1.6875-.65104-2.55729-.91667c-.86458-.26042-1.74479-.47917-2.63021-.65625-.89063-.17708-1.78646-.3125-2.6875-.40104s-1.80729-.13021-2.71354-.13021Z" style="fill:#d6932a;"/></g></g></svg>