<?xml version="1.0" encoding="UTF-8"?><svg id="Layer_2" xmlns="http://www.w3.org/2000/svg" xmlns:xlink="http://www.w3.org/1999/xlink" viewBox="0 0 156 155.52084"><defs><clipPath id="clippath"><rect width="156" height="155.52084" style="fill:none;"/></clipPath></defs><g id="Layer_1-2"><g style="clip-path:url(#clippath);"><path d="M78.50521,0c-2.24479-.01042-4.48958,.07813-6.73438,.26042-2.23958,.18229-4.46875,.46354-6.68229,.83854-2.21875,.375-4.41146,.84896-6.58854,1.41667s-4.32292,1.22396-6.4375,1.97917c-2.11979,.75-4.19792,1.59375-6.24479,2.52604-2.04167,.93229-4.04167,1.94792-5.99479,3.05208-1.95313,1.10938-3.85938,2.29688-5.70833,3.56771-1.84896,1.26563-3.64063,2.61458-5.375,4.04167-1.73438,1.42188-3.40104,2.92188-5,4.48958-1.60417,1.56771-3.13542,3.20313-4.59375,4.90625s-2.83854,3.46354-4.14583,5.28646c-1.30208,1.81771-2.52604,3.69271-3.66667,5.61979s-2.19271,3.90104-3.16146,5.91667c-.96875,2.02083-1.84896,4.07813-2.63542,6.17188-.79167,2.09375-1.48438,4.21875-2.08854,6.375-.59896,2.15104-1.10938,4.32813-1.52083,6.52604s-.72917,4.41146-.94792,6.63542c-.21875,2.22917-.33854,4.45833-.35938,6.69271-.02604,2.23958,.04688,4.46875,.21875,6.69792,.17188,2.23438,.44271,4.44792,.80729,6.65625,.36979,2.20833,.82813,4.39583,1.38542,6.5625s1.20833,4.30208,1.95313,6.41146,1.57813,4.1875,2.50521,6.22396,1.9375,4.03125,3.03646,5.98438c1.09896,1.94792,2.28646,3.84896,3.55208,5.69271,1.26563,1.84896,2.60938,3.64063,4.03125,5.36979,1.42188,1.73438,2.92188,3.40104,4.48958,5,1.56771,1.60417,3.20313,3.13542,4.90625,4.59896,1.70313,1.45833,3.46354,2.84375,5.28646,4.15104s3.70313,2.53646,5.63542,3.68229c1.92708,1.14583,3.90625,2.20313,5.93229,3.17708,2.02083,.97396,4.08333,1.85938,6.18229,2.65625-.625-6.32292-1.26563-15.17188,0-22.16667l8.90104-38.55729c-1.66667-3.60938-2.51563-7.40625-2.54688-11.375,0-10.75,6.35938-18.96354,13.97917-18.96354s9.53125,5.05729,9.53125,10.74479-4.44792,16.38542-6.35938,25.91146c-1.90625,9.53125,3.8125,13.90625,11.4375,13.90625,7.61979,0,24.14583-14.53646,24.14583-35.39583,0-20.85417-13.34375-31.60417-32.41146-31.60417-19.07292,0-34.31771,17.0625-34.31771,34.13021,0,6.32292,2.54688,13.90625,5.71875,17.69792,.48438,.54167,.69792,1.17188,.63542,1.89583l-1.90625,8.84375c-.625,1.26563-1.26563,1.89583-2.54167,1.26563-9.53125-4.42708-15.89063-18.32813-15.89063-29.70833,0-24.01563,17.79167-46.77083,51.46875-46.77083,33.68229,0,47.65625,18.96354,47.65625,44.24479,0,25.27604-17.15104,48.03646-40.03646,48.03646-7.625,0-15.25-3.79167-17.79167-8.84896l-5.08333,18.32813c-1.90625,6.95313-6.35938,15.17188-9.53125,20.22396,1.32292,.39583,2.65625,.75,4,1.07292s2.69271,.60417,4.05208,.85417,2.72396,.46354,4.09375,.64063,2.74479,.31771,4.11979,.42188c1.38021,.10417,2.76042,.17188,4.14063,.19792,1.38021,.03125,2.76042,.02604,4.14063-.01563,1.38021-.04688,2.76042-.125,4.13542-.23958,1.38021-.11979,2.75-.27083,4.11979-.45833,1.36979-.19271,2.72917-.41667,4.08854-.67708,1.35417-.26042,2.70313-.5625,4.04167-.89583,1.34375-.33333,2.67188-.70313,3.99479-1.10417,1.31771-.40625,2.625-.84375,3.92188-1.31771s2.58333-.97917,3.84896-1.52604c1.27083-.54167,2.52604-1.11458,3.76563-1.72396s2.45833-1.25,3.66146-1.92188c1.20313-.67708,2.39063-1.38021,3.55729-2.11979,1.16667-.73438,2.3125-1.5,3.4375-2.29688,1.125-.80208,2.22917-1.625,3.30729-2.48438,1.07813-.85417,2.13542-1.73958,3.17188-2.65104,1.03125-.91146,2.04167-1.85417,3.02083-2.81771,.98438-.96875,1.9375-1.95833,2.86979-2.97396,.92708-1.01563,1.82813-2.05729,2.70313-3.125,.875-1.0625,1.71875-2.15104,2.53125-3.26042s1.59896-2.23958,2.35417-3.39063,1.47396-2.32292,2.16667-3.51042c.69271-1.19271,1.34896-2.40104,1.97917-3.625,.625-1.22396,1.21875-2.46354,1.77604-3.71875,.55729-1.26042,1.08333-2.53125,1.57813-3.8125,.48958-1.28646,.94792-2.58333,1.36979-3.89063s.80729-2.625,1.15625-3.95833c.34896-1.32813,.66667-2.66667,.94271-4.01042,.28125-1.34375,.52083-2.69792,.72917-4.05729s.375-2.72396,.51042-4.08854c.13021-1.36979,.22917-2.73958,.28646-4.11458,.05729-1.36979,.08333-2.74479,.06771-4.11979-.01563-1.36979-.06771-2.74479-.15625-4.11458-.08854-1.375-.21354-2.73958-.375-4.10417s-.35938-2.72396-.59375-4.07813-.51042-2.70313-.81771-4.04167-.64583-2.67188-1.02604-3.98958c-.38021-1.32292-.79688-2.63542-1.24479-3.93229-.44792-1.30208-.93229-2.58854-1.45313-3.85938-.51563-1.27604-1.06771-2.53646-1.65625-3.78125-.58333-1.23958-1.20313-2.46875-1.85417-3.68229-.65625-1.20833-1.33854-2.40104-2.05208-3.57813-.71875-1.17708-1.46875-2.32813-2.24479-3.46354s-1.58854-2.25-2.42708-3.34375-1.70313-2.16146-2.59896-3.20833-1.81771-2.06771-2.77083-3.0625c-.94792-1-1.92708-1.96875-2.92708-2.91667-1.00521-.94271-2.03125-1.85938-3.08333-2.75s-2.13021-1.75521-3.22917-2.58854-2.21875-1.63542-3.35938-2.41146c-1.14063-.77083-2.30208-1.51563-3.48438-2.22396-1.18229-.71354-2.38021-1.39583-3.59896-2.04167-1.21875-.65104-2.45313-1.26563-3.70313-1.84896-1.25521-.57813-2.52083-1.13021-3.80208-1.64583-1.27604-.51563-2.57292-.99479-3.88021-1.44271-1.30729-.44271-2.625-.85417-3.95313-1.23438-1.32813-.375-2.66667-.71354-4.01042-1.02083-1.34896-.30729-2.70313-.57292-4.0625-.80729-1.36458-.23438-2.72917-.43229-4.10417-.58854-1.36979-.16146-2.74479-.28646-4.125-.375s-2.76042-.13542-4.14063-.15104Z" style="fill:#d6932a;"/></g></g></svg>