<?xml version="1.0" encoding="UTF-8"?><svg id="Layer_2" xmlns="http://www.w3.org/2000/svg" viewBox="0 0 166 166"><g id="Layer_1-2"><g><path d="M59.42188,33.875c0-.35938-.07294-.70837-.21356-1.0365-.14062-.33331-.3385-.625-.59375-.88019-.26038-.25519-.55206-.44794-.88538-.58331-.33337-.14062-.68231-.20837-1.04169-.20837s-.70831,.06775-1.04169,.20837c-.33331,.13538-.625,.32812-.88538,.58331-.25525,.25519-.45312,.54688-.59375,.88019-.14062,.32812-.21356,.67712-.21356,1.0365v4.92706h5.46875v-4.92706Z" style="fill:#fff;"/><path d="M85.72394,34.70312c0-.35938-.06769-.70837-.20831-1.04169-.13544-.33331-.33331-.625-.58856-.88019-.25519-.25525-.55206-.45312-.88538-.59375-.33337-.13544-.67712-.20837-1.04169-.20837-.35938,0-.70831,.07294-1.04169,.20837-.33331,.14062-.63019,.3385-.88538,.59375-.25525,.25519-.44794,.54688-.58856,.88019-.13544,.33331-.20831,.68231-.20831,1.04169v4.09894h5.44788v-4.09894Z" style="fill:#fff;"/><path d="M112.05206,33.875c-.00519-.35938-.07812-.70837-.21875-1.0365-.14062-.33331-.3385-.625-.59375-.88019-.25519-.25519-.55206-.44794-.88538-.58331-.33337-.14062-.67712-.20837-1.04169-.20837-.35938,0-.70312,.06775-1.03644,.20837-.33337,.13538-.63025,.32812-.88544,.58331s-.45312,.54688-.59375,.88019c-.14062,.32812-.21356,.67712-.21875,1.0365v4.92706h5.47394v-4.92706Z" style="fill:#fff;"/><path d="M31.125,121.23438c0,.89581,.08856,1.78125,.26562,2.66144,.17188,.875,.43231,1.72919,.77606,2.55731,.3385,.82812,.76038,1.61456,1.26038,2.35938,.49481,.74475,1.0625,1.43225,1.69275,2.06769,.63538,.63019,1.32288,1.19794,2.06769,1.69794,.74481,.49475,1.53125,.91663,2.35938,1.26038,.82812,.33856,1.68231,.599,2.5625,.77606,.875,.17188,1.76562,.26044,2.66144,.26044H121.23438c.89581,0,1.78125-.08856,2.66144-.26044,.875-.17706,1.72919-.4375,2.55731-.77606,.82812-.34375,1.61456-.76562,2.35938-1.26038,.74481-.5,1.43231-1.06775,2.06769-1.69794,.63544-.63544,1.19794-1.32294,1.69794-2.06769,.49481-.74481,.91669-1.53125,1.26044-2.35938s.59894-1.68231,.776-2.55731c.17188-.88019,.26044-1.76562,.26044-2.66144v-56.54688H31.125v56.54688Z" style="fill:#fff;"/><path d="M133.83331,47.25c-.34375-.82812-.76038-1.61462-1.26038-2.35938-.49481-.74481-1.0625-1.4375-1.69275-2.07294-.63538-.63019-1.32288-1.19794-2.06769-1.69794s-1.53125-.92188-2.35938-1.26562-1.67706-.60413-2.55731-.78125c-.88019-.17706-1.76562-.26562-2.66144-.27081h-9.18231v10.42706c-.00519,.35938-.08331,.70312-.22394,1.03125s-.33856,.61981-.59375,.86981c-.26044,.25519-.55206,.44794-.88544,.58331-.32812,.13544-.67706,.20312-1.03644,.20312-.35419,0-.70312-.06769-1.03125-.20312-.33331-.13538-.63019-.32812-.88544-.58331-.25519-.25-.45312-.54169-.59375-.86981s-.21875-.67188-.22394-1.03125v-10.42706h-20.85419v11.25519c-.00519,.35938-.07288,.70837-.2135,1.0365s-.33856,.61975-.59375,.875c-.25525,.25-.54688,.44788-.88025,.58331-.33331,.13544-.67706,.20312-1.03644,.20312s-.70312-.06769-1.03644-.20312c-.32812-.13544-.625-.33331-.88025-.58331-.25519-.25525-.45312-.54688-.5885-.875-.14062-.32812-.21356-.67712-.21875-1.0365v-11.25519h-20.85419v10.42706c0,.36462-.06769,.71356-.20831,1.04688-.13544,.33856-.33337,.63025-.59375,.89062-.25525,.25525-.55212,.45312-.88544,.59375-.33331,.13544-.68231,.20837-1.04688,.20837s-.71356-.07294-1.04688-.20837c-.33331-.14062-.63019-.3385-.89062-.59375-.20361-.20776-.35968-.44324-.48773-.69873-.03436-.06641-.07666-.1275-.10602-.19708-.05652-.1391-.09418-.28235-.12714-.42651-.00653-.02814-.01929-.05499-.02484-.08337-.034-.17426-.05115-.35168-.05115-.5318v-10.42706h-9.18231c-.89581,.00519-1.78644,.09375-2.66144,.27081-.88019,.17712-1.73438,.4375-2.5625,.78125s-1.60938,.76562-2.35419,1.26562c-.74475,.5-1.4375,1.06775-2.06769,1.69794-.63544,.63544-1.19794,1.32812-1.69794,2.07294-.49475,.74475-.91663,1.53125-1.26038,2.35938s-.599,1.68225-.77606,2.55725c-.17706,.88025-.26562,1.77087-.26562,2.66669v6.73956h103.75v-6.73956c0-.89581-.08856-1.78644-.26562-2.66669-.17188-.875-.43231-1.72913-.77606-2.55725Z" style="fill:#fff;"/><path d="M165.59894,74.86456c-.26562-2.70312-.66144-5.39062-1.19269-8.05731-.53125-2.66663-1.19269-5.29688-1.97919-7.901-.79163-2.599-1.70831-5.15625-2.74475-7.66669-1.04169-2.51044-2.20312-4.96356-3.48438-7.36456-1.28125-2.39587-2.67712-4.724-4.1875-6.98438-1.51044-2.26044-3.13025-4.44275-4.85419-6.54169-1.72394-2.10419-3.54688-4.11456-5.46875-6.03644s-3.93231-3.74481-6.03644-5.46875c-2.099-1.724-4.28125-3.34375-6.54169-4.85419s-4.58856-2.90625-6.98438-4.1875-4.85419-2.44269-7.36456-3.47919c-2.51044-1.04163-5.06775-1.95831-7.66669-2.74475-2.59894-.79169-5.23438-1.45312-7.90106-1.97919-2.66663-.53125-5.34894-.93231-8.05725-1.19794-2.70312-.26562-5.41669-.401-8.13544-.401s-5.42706,.13538-8.13544,.401c-2.70312,.26562-5.39062,.6615-8.05725,1.19275-2.66669,.53125-5.29688,1.19269-7.90106,1.97913-2.59894,.79169-5.15625,1.70312-7.66669,2.74481-2.51038,1.04169-4.96875,2.20312-7.36456,3.48438s-4.72394,2.67706-6.98438,4.1875-4.44269,3.125-6.54169,4.84894c-2.10413,1.724-4.11456,3.55212-6.03644,5.474s-3.74481,3.93225-5.46875,6.03125c-1.72919,2.10413-3.34375,4.28644-4.85419,6.54688-1.51038,2.25519-2.90625,4.5885-4.1875,6.98438-1.28125,2.39581-2.44269,4.84894-3.48438,7.36456-1.03644,2.51044-1.95312,5.06769-2.74475,7.66669-.7865,2.60413-1.44794,5.23438-1.97919,7.901-.52606,2.66669-.92706,5.35419-1.19269,8.05731s-.40106,5.41669-.40106,8.13544,.13544,5.43225,.40106,8.13538,.66663,5.39062,1.19269,8.05731c.53125,2.66669,1.19269,5.30206,1.97919,7.90106,.79163,2.59894,1.70831,5.15625,2.74475,7.67188,1.04169,2.51038,2.20312,4.9635,3.48438,7.35938,1.28125,2.401,2.67712,4.72913,4.1875,6.98956,1.51044,2.26044,3.125,4.4375,4.85419,6.54169,1.72394,2.09894,3.54688,4.10938,5.46875,6.03644,1.92188,1.92188,3.93231,3.74481,6.03644,5.46875,2.099,1.72394,4.28125,3.33856,6.54169,4.84894,2.26044,1.51044,4.58856,2.90625,6.98438,4.1875s4.85419,2.44275,7.36456,3.48438c2.51044,1.04169,5.06775,1.95312,7.66669,2.74481,2.60419,.78644,5.23438,1.44794,7.90106,1.97919,2.66663,.53125,5.35413,.92706,8.05725,1.19269,2.70837,.26562,5.41669,.40106,8.13544,.40106s5.43231-.13544,8.13544-.40106c2.70831-.26562,5.39062-.66144,8.05725-1.19269,2.66669-.53125,5.30212-1.19275,7.90106-1.97919,2.60419-.79169,5.15625-1.70312,7.67188-2.74481,2.51044-1.04163,4.96356-2.20312,7.35938-3.48438,2.40106-1.28125,4.72919-2.67706,6.98956-4.1875,2.26044-1.51038,4.4375-3.125,6.54169-4.84894,2.09894-1.72394,4.11456-3.54688,6.03644-5.46875,1.92188-1.92706,3.74481-3.9375,5.46875-6.03644,1.724-2.10419,3.34375-4.28125,4.849-6.54169,1.51038-2.26044,2.90625-4.58856,4.1875-6.98956,1.28644-2.39587,2.44269-4.849,3.48438-7.35938,1.04163-2.51562,1.95312-5.07294,2.74475-7.67188,.79169-2.599,1.44794-5.23438,1.97919-7.90106s.92706-5.35419,1.19269-8.05731c.27087-2.70312,.40106-5.41663,.40106-8.13538s-.13544-5.42712-.40106-8.13544Zm-30.72394,46.36981c0,.89581-.08856,1.78125-.26044,2.66144-.17706,.875-.43225,1.72919-.776,2.55731s-.76562,1.61456-1.26044,2.35938c-.5,.74475-1.0625,1.43225-1.69794,2.06769-.63538,.63019-1.32288,1.19794-2.06769,1.69794-.74481,.49475-1.53125,.91663-2.35938,1.26038-.82812,.33856-1.68231,.599-2.55731,.77606-.88019,.17188-1.76562,.26044-2.66144,.26044H44.77081c-.89581,0-1.78644-.08856-2.66144-.26044-.88019-.17706-1.73438-.4375-2.5625-.77606-.82812-.34375-1.61456-.76562-2.35938-1.26038-.74481-.5-1.43231-1.06775-2.06769-1.69794-.63025-.63544-1.19794-1.32294-1.69275-2.06769-.5-.74481-.92188-1.53125-1.26038-2.35938-.34375-.82812-.60419-1.68231-.77606-2.55731-.17706-.88019-.26562-1.76562-.26562-2.66144v-56.54688h103.75v56.54688Zm0-62.02087H31.125v-6.73956c0-.89581,.08856-1.78644,.26562-2.66669,.17706-.875,.43231-1.72913,.77606-2.55725s.76562-1.61462,1.26038-2.35938c.5-.74481,1.0625-1.4375,1.69794-2.07294,.63019-.63019,1.32294-1.19794,2.06769-1.69794,.74481-.5,1.52606-.92188,2.35419-1.26562s1.68231-.60413,2.5625-.78125c.875-.17706,1.76562-.26562,2.66144-.27081h9.18231v-4.92706c0-.35938,.07294-.70837,.21356-1.0365,.14062-.33331,.3385-.625,.59375-.88019,.26038-.25519,.55206-.44794,.88538-.58331,.33337-.14062,.68231-.20837,1.04169-.20837s.70831,.06775,1.04169,.20837c.33331,.13538,.625,.32812,.88538,.58331,.25525,.25519,.45312,.54688,.59375,.88019,.14062,.32812,.21356,.67712,.21356,1.0365v4.92706h20.85419v-4.09894c0-.35938,.07288-.70837,.20831-1.04169,.14062-.33331,.33331-.625,.58856-.88019,.25519-.25525,.55206-.45312,.88538-.59375,.33337-.13544,.68231-.20837,1.04169-.20837,.36456,0,.70831,.07294,1.04169,.20837,.33331,.14062,.63019,.3385,.88538,.59375,.25525,.25519,.45312,.54688,.58856,.88019,.14062,.33331,.20831,.68231,.20831,1.04169v4.09894h20.85419v-4.92706c.00519-.35938,.07812-.70837,.21875-1.0365,.14062-.33331,.33856-.625,.59375-.88019s.55206-.44794,.88544-.58331c.33331-.14062,.67706-.20837,1.03644-.20837,.36456,0,.70831,.06775,1.04169,.20837,.33331,.13538,.63019,.32812,.88538,.58331,.25525,.25519,.45312,.54688,.59375,.88019,.14062,.32812,.21356,.67712,.21875,1.0365v4.92706h9.18231c.89581,.00519,1.78125,.09375,2.66144,.27081,.88025,.17712,1.72919,.4375,2.55731,.78125s1.61456,.76562,2.35938,1.26562,1.43231,1.06775,2.06769,1.69794c.63025,.63544,1.19794,1.32812,1.69275,2.07294,.5,.74475,.91663,1.53125,1.26038,2.35938s.60419,1.68225,.77606,2.55725c.17706,.88025,.26562,1.77087,.26562,2.66669v6.73956Z" style="fill:#d6932a;"/><path d="M106.80206,50.26038c.14062,.32812,.33856,.61981,.59375,.86981,.25525,.25519,.55212,.44794,.88544,.58331,.32812,.13544,.67706,.20312,1.03125,.20312,.35938,0,.70831-.06769,1.03644-.20312,.33337-.13538,.625-.32812,.88544-.58331,.25519-.25,.45312-.54169,.59375-.86981s.21875-.67188,.22394-1.03125v-10.42706h-5.47394v10.42706c.00519,.35938,.08331,.70312,.22394,1.03125Z" style="fill:#d6932a;"/><path d="M54.00427,49.76093c.00555,.02838,.01831,.05524,.02484,.08337,.03296,.14417,.07062,.28741,.12714,.42651,.02936,.06958,.07166,.13068,.10602,.19708,.12805,.25549,.28412,.49097,.48773,.69873,.26044,.25525,.55731,.45312,.89062,.59375,.33331,.13544,.68231,.20837,1.04688,.20837s.71356-.07294,1.04688-.20837c.33331-.14062,.63019-.3385,.88544-.59375,.26038-.26038,.45831-.55206,.59375-.89062,.14062-.33331,.20831-.68225,.20831-1.04688v-10.42706h-5.46875v10.42706c0,.18011,.01715,.35754,.05115,.5318Z" style="fill:#d6932a;"/><path d="M80.49481,51.09375c.13538,.32812,.33331,.61975,.5885,.875,.25525,.25,.55212,.44788,.88025,.58331,.33331,.13544,.67706,.20312,1.03644,.20312s.70312-.06769,1.03644-.20312c.33337-.13544,.625-.33331,.88025-.58331,.25519-.25525,.45312-.54688,.59375-.875s.20831-.67712,.2135-1.0365v-11.25519h-5.44788v11.25519c.00519,.35938,.07812,.70837,.21875,1.0365Z" style="fill:#d6932a;"/></g></g></svg>