<?xml version="1.0" encoding="UTF-8" standalone="no"?>
<!-- Created with Inkscape (http://www.inkscape.org/) -->

<svg
   version="1.1"
   id="svg2"
   xml:space="preserve"
   width="1600"
   height="1600"
   viewBox="0 0 1600 1600"
   sodipodi:docname="RG-CircleStem.eps"
   xmlns:inkscape="http://www.inkscape.org/namespaces/inkscape"
   xmlns:sodipodi="http://sodipodi.sourceforge.net/DTD/sodipodi-0.dtd"
   xmlns="http://www.w3.org/2000/svg"
   xmlns:svg="http://www.w3.org/2000/svg"><defs
     id="defs6" /><sodipodi:namedview
     id="namedview4"
     pagecolor="#ffffff"
     bordercolor="#666666"
     borderopacity="1.0"
     inkscape:pageshadow="2"
     inkscape:pageopacity="0.0"
     inkscape:pagecheckerboard="0" /><g
     id="g8"
     inkscape:groupmode="layer"
     inkscape:label="ink_ext_XXXXXX"
     transform="matrix(1.3333333,0,0,-1.3333333,0,1600)"><g
       id="g10"
       transform="scale(0.1)"><path
         d="m 8742.27,6753.96 c -11.74,-8.44 -19.86,-13.57 -27.21,-19.64 -214.64,-177.12 -429.97,-353.42 -643.62,-531.75 -286.7,-239.32 -566.19,-486.69 -827.15,-754.32 -254.19,-260.68 -489.91,-536.77 -686.43,-843.9 -91.43,-142.9 -173.14,-292.04 -258.74,-438.65 -8.92,-15.28 -14.93,-32.4 -21.03,-49.13 -2.31,-6.34 -1.06,-13.96 -1.82,-28.49 15.18,10.59 25.79,16.29 34.26,24.25 17.89,16.83 34.95,34.57 51.85,52.41 67.64,71.38 133.68,144.34 202.93,214.13 115.69,116.58 246.17,213.71 392.61,288.9 19.84,10.2 38.65,22.4 58.28,33.05 76.53,41.53 151.48,86.47 230.14,123.53 263.03,123.93 535.34,224.35 813.44,308.69 212.57,64.46 426.18,125.52 639.24,188.39 29.75,8.77 59.02,19.16 89.23,29.03 69.77,470.74 65.8,936.42 -45.98,1403.5 z M 6322.78,4503.13 c 18.75,0.25 23.87,11.08 29.6,19.91 15.81,24.35 32.05,48.53 46.08,73.91 39.57,71.66 86.28,138.36 137.4,202.09 36.36,45.32 72.6,90.75 109.77,135.39 275.54,330.81 536.53,672.7 775.51,1030.86 151.29,226.73 297.26,457.02 445.75,685.62 183.32,282.19 373.15,559.69 590.36,817.41 2.75,3.27 4.58,7.32 7.36,11.89 -189.45,349.36 -434.14,650.95 -752.75,891.15 -157.84,-142.92 -313.31,-282.47 -467.4,-423.52 -212.88,-194.87 -374.21,-428.24 -506.05,-683.33 -33.23,-64.28 -55.48,-131.27 -59.6,-204.17 -3.99,-70.27 -10.9,-140.36 -15.43,-210.6 -8.2,-127.09 -17.96,-254.14 -22.63,-381.37 -4.83,-131.81 -8.29,-263.56 -26.59,-394.4 -15.64,-111.72 -30.54,-223.54 -46.62,-335.2 -28.99,-201.17 -56.14,-402.66 -88.71,-603.25 -26.68,-164.32 -64.99,-326.28 -120.49,-483.77 -12.22,-34.68 -21.3,-70.51 -30.6,-106.13 -3.42,-13.14 -3.29,-27.2 -4.96,-42.49 z m 620.99,4249.41 c -12.57,3.83 -22.85,7.29 -33.31,10.1 -165.89,44.45 -335.05,66.58 -506.42,72.57 -253.38,8.84 -504.66,-12.68 -754.26,-55.16 -233.64,-39.76 -463.29,-96.65 -690.77,-162.78 -277.79,-80.78 -550.38,-177.2 -823.8,-271.29 C 3663.04,8183.49 3247.48,7927.92 2883.03,7588.12 2541.98,7270.13 2267.69,6901.35 2054.67,6487.1 1782.09,5957.02 1626.51,5394.7 1598.25,4798.6 c -12.16,-256.35 1.75,-511.57 44.58,-765.03 59.67,-353.08 169.12,-689.36 338.17,-1005.46 209.32,-391.42 491.82,-717.5 863.59,-963.62 239,-158.19 495.88,-279.79 766.79,-371.49 472.23,-159.7 956.68,-258.5 1455.28,-284.1 263.28,-13.4 524.75,0.7 784.5,47.5 443.46,80 836.19,265.7 1178.3,559.15 207.22,177.74 388,379.63 551.58,597.51 206.48,275 382.99,568.93 548.66,869.67 145.18,263.6 272.03,535.75 378.54,817.29 5.4,14.28 10.38,28.73 16.66,46.17 -9.58,-0.56 -14.93,-0.72 -20.26,-1.2 -89.02,-7.98 -178.01,-16.23 -267.05,-23.95 -84.6,-7.33 -169.21,-14.59 -253.88,-21.06 -196.06,-14.99 -392.09,-30.44 -588.26,-43.84 -137.37,-9.37 -273.4,-26.48 -407.47,-58.27 -196.01,-46.47 -377.45,-128.85 -556.12,-219.84 -234.14,-119.23 -422.09,-290.46 -579.39,-498.23 -105.25,-139.02 -208.65,-279.83 -328.16,-407.03 -125.5,-133.57 -255.53,-262.89 -383.66,-393.98 -6.24,-6.39 -13.1,-12.18 -19.79,-18.1 -73.64,-65.14 -147.05,-130.55 -221.08,-195.26 -39.51,-34.53 -79.6,-68.45 -120.34,-101.52 -41.58,-33.77 -84.54,-65.85 -126.38,-99.31 -25.3,-20.24 -49.7,-41.62 -74.36,-62.65 -26.35,-22.46 -57.28,-29.58 -90.78,-26.09 -49.59,5.16 -69.67,43.58 -43.67,85.18 9.23,14.74 22,28.12 35.56,39.17 90.14,73.36 182.67,143.89 271.08,219.25 114.77,97.83 230.18,195.07 335.15,303.98 47.17,48.94 99.63,92.78 149.63,139 6.55,6.06 13.21,12.11 18.98,18.87 47.89,56.11 95.67,112.32 143.3,168.64 70.78,83.68 123.7,177.18 159.39,281.1 41.82,121.77 70.73,246.82 100.46,371.75 43.16,181.38 93.37,361.29 108.06,548.38 8.13,103.63 17.76,206.92 11.11,311.23 -10.27,161.22 -73.43,297.46 -186,412.09 -90.55,92.2 -197.54,160.08 -314.17,213.75 -204.83,94.26 -422.5,136.65 -645.39,152.23 -144.81,10.12 -290.28,11.29 -435.49,15.03 -130.73,3.37 -261.56,3.1 -392.24,7.54 -125.11,4.24 -249.83,14.82 -372.9,39.41 -127.83,25.55 -250.61,64.88 -363.21,132.41 -135.84,81.47 -231.17,195.54 -279.06,347.25 -14.78,46.79 -26.11,94.67 -38.51,142.19 -3.65,14.01 -6.84,28.37 -7.94,42.75 -2.64,34.44 12.92,51.42 47.61,47.83 21.74,-2.24 43.85,-8.93 63.94,-17.81 118.11,-52.22 242.33,-76.9 370.48,-83.76 156.96,-8.41 312.52,7.16 467.65,29.26 158.1,22.52 315.72,48.15 475.29,59.98 236.72,17.55 463.18,-18.98 678.6,-119.78 237.39,-111.08 439.58,-269.23 613.63,-463.76 180.73,-201.99 312.32,-431.77 386.37,-693.71 67.61,-239.14 67.65,-481.26 32.98,-724.6 -14.95,-104.98 -36.46,-209.01 -54.04,-313.63 -4.83,-28.71 -12,-57.76 -6.57,-88.58 4.66,2.25 7.23,2.67 8.34,4.18 6,8.05 11.79,16.28 17.39,24.63 52.61,78.37 93.77,162.74 125.43,251.3 36.44,101.99 68.19,205.63 104.27,307.75 52.81,149.52 108.79,297.92 161.33,447.53 65.97,187.86 118.71,379.3 151.74,576 38.59,229.7 53.62,461.52 67.04,693.64 7.86,136.08 19.82,271.92 30.54,407.83 10.1,128.08 21.9,256.04 31.19,384.18 4.85,66.81 3.22,134.15 9.22,200.83 15.04,166.89 29.79,333.91 50.3,500.18 18.73,151.84 46.11,302.57 82.71,451.33 57.77,234.78 152.37,454.94 266.65,667.19 6.28,11.67 12.29,23.47 19.62,37.47 z m 74.47,130.3 c 4.24,6.31 9.4,13.47 14.02,20.96 126.78,205.3 273.43,394.61 447.73,562.23 115.3,110.88 234.02,217.72 358.52,318.2 60.86,49.13 121.67,98.46 180.69,149.78 117.1,101.89 250.83,178.89 381.92,259.99 150.09,92.9 303.26,181 444.92,287 102.91,76.9 205.4,154.5 308.45,231.3 12.32,9.2 26.19,17.8 40.7,22.2 23.5,7.1 36.71,-4.2 37.32,-28.5 0.54,-21.2 -8.18,-38.8 -21.07,-55 -40.32,-50.8 -80.58,-101.6 -120.61,-152.6 -42.8,-54.5 -85.68,-108.9 -127.88,-163.8 -87.98,-114.6 -151.83,-241.5 -196.59,-378.91 -41.86,-128.47 -88.54,-255.36 -131.95,-383.33 -103.25,-304.29 -272.83,-566.41 -501.27,-791.26 -97.19,-95.66 -194.9,-190.8 -292.45,-286.1 -7.97,-7.79 -16.46,-15.05 -27.92,-25.45 309.78,-243.59 554.63,-539.44 747.7,-880.47 6.23,5.53 10.7,8.84 14.37,12.88 167.16,184.23 353.44,348.13 541.73,509.92 175.49,150.79 352.56,299.85 517.29,462.67 161.93,160.05 309.18,332.04 426.44,528.18 15.3,25.54 35.3,46.33 64.3,56.09 25.3,8.52 42.5,-2.15 43.7,-28.9 1.3,-28.98 0.5,-58.14 -0.9,-87.15 -20.9,-410.31 -133.2,-793.64 -340.62,-1148.61 -126.6,-216.7 -286.09,-407.54 -462.34,-585.11 -149.79,-150.92 -309.9,-290.38 -472.45,-427.17 -10.18,-8.57 -20.16,-17.4 -31.66,-27.33 128.04,-474.24 145.46,-954.62 81.89,-1443.09 10.46,2.53 18.67,3.78 26.35,6.52 104.11,37.08 209.29,71.53 311.94,112.33 129.78,51.6 256.31,110.58 373.01,188.8 34.22,22.93 71.01,42.18 107.32,61.82 139.51,75.44 279.56,149.95 418.96,225.59 97.6,52.95 181,122.73 246.8,212.85 1.3,1.8 2.6,3.59 4.1,5.31 23.7,28.71 46.1,37.7 68.8,27.59 22.7,-10.13 47,-48.84 42.8,-74.29 -3.6,-21.75 -9,-44.32 -19.1,-63.69 -34.1,-65.68 -57.6,-134.59 -80,-205.23 -52.2,-164.58 -126.1,-320.21 -224.9,-462.57 -198.4,-285.94 -431.86,-538.6 -716.55,-741.26 -229.24,-163.18 -484.05,-267.42 -759.19,-321.85 -42.93,-8.49 -65.19,-24.27 -80.84,-66.95 -183.21,-499.52 -429.73,-967.1 -719,-1412.82 C 7788.54,2666.04 7621.89,2437.95 7430.83,2228.36 7208,1983.9 6959.34,1771.1 6670.67,1607.2 c -245.13,-139.1 -507,-231.8 -783.79,-283.7 -240.34,-45.1 -482.82,-64.8 -727.05,-59.1 -177.69,4.1 -354.66,19.6 -530.84,44.4 -342.64,48.3 -677.88,128.2 -1006.35,236.2 -350.56,115.2 -677.76,276.9 -973.97,498.72 -402.15,301.18 -696.45,686.77 -897.38,1145.55 -127.15,290.35 -211.58,592.72 -256.42,906.4 -34.75,243.14 -46.54,487.3 -30.83,732.37 41.65,649.99 218.27,1261.29 531.38,1832.51 228.81,417.45 519.11,786.51 876.99,1101.32 361.71,318.16 769.32,557.4 1225.14,715.07 307.06,106.2 613.48,214.1 926.48,301.95 233.52,65.53 469.5,120.14 709.5,155.9 212.59,31.67 426.39,48 641.5,41.15 207.32,-6.6 411.69,-34.27 612.08,-88.92 7.53,-2.05 15.16,-3.8 22.8,-5.33 2.04,-0.4 4.36,0.55 8.33,1.15"
         style="fill:#91362f;fill-opacity:1;fill-rule:nonzero;stroke:none"
         id="path12" /></g></g></svg>
