<?xml version="1.0" encoding="UTF-8" standalone="no"?>
<!-- Created with Inkscape (http://www.inkscape.org/) -->

<svg
   version="1.1"
   id="svg2"
   xml:space="preserve"
   width="1600"
   height="1600"
   viewBox="0 0 1600 1600"
   sodipodi:docname="RG-Dots.eps"
   xmlns:inkscape="http://www.inkscape.org/namespaces/inkscape"
   xmlns:sodipodi="http://sodipodi.sourceforge.net/DTD/sodipodi-0.dtd"
   xmlns="http://www.w3.org/2000/svg"
   xmlns:svg="http://www.w3.org/2000/svg"><defs
     id="defs6" /><sodipodi:namedview
     id="namedview4"
     pagecolor="#ffffff"
     bordercolor="#666666"
     borderopacity="1.0"
     inkscape:pageshadow="2"
     inkscape:pageopacity="0.0"
     inkscape:pagecheckerboard="0" /><g
     id="g8"
     inkscape:groupmode="layer"
     inkscape:label="ink_ext_XXXXXX"
     transform="matrix(1.3333333,0,0,-1.3333333,0,1600)"><g
       id="g10"
       transform="scale(0.1)"><path
         d="m 9097.21,6605.01 c 1.59,-99.37 -39.4,-176.83 -121.83,-231.3 -28.37,-18.75 -59.16,-34.41 -90.24,-48.36 -68.63,-30.79 -138.87,-58.05 -207.13,-89.59 -101.25,-46.8 -200.55,-39.48 -296.09,11.55 -91.82,49.06 -188.19,59.6 -288.72,46.54 -74.59,-9.7 -148.76,-22.67 -223.23,-33.37 -70.61,-10.14 -134.6,7.8 -188.09,54.17 -123.63,107.18 -238.47,222.85 -331.84,358.19 -50.69,73.49 -93.6,151.22 -125.68,234.73 -25.62,66.73 -32.89,134.21 -14.49,204.53 9.49,36.26 12.08,74.27 19.76,111.08 19.11,91.73 63.25,170.44 127.23,238.4 44.86,47.63 95.61,88.17 150.59,123.32 39.11,25 82.2,40.2 128.69,41.85 101.88,3.63 197.99,28.99 290.25,71.57 62.69,28.93 128.07,51.61 198.09,44.2 104.26,-11.02 208.67,-22.79 311.92,-40.65 101.12,-17.5 177.53,-76.16 227.67,-165.49 52.3,-93.17 115.3,-177.77 188.39,-255.48 66.96,-71.19 110.33,-155.16 135.62,-249.91 20.54,-77.02 47.05,-152.45 70.76,-228.63 20.03,-64.37 37.8,-129.2 38.37,-197.35"
         style="fill:#c46546;fill-opacity:1;fill-rule:nonzero;stroke:none"
         id="path12" /><path
         d="m 10715.7,4662.42 c -4.1,-62.52 -4.1,-125.63 -13.1,-187.42 -21.5,-146.97 -93.3,-267.72 -203.6,-366.08 -101.1,-90.18 -218.3,-152.69 -345.3,-197.43 -64.4,-22.68 -130.5,-23.59 -194.96,-1.19 -108.69,37.81 -216.68,77.67 -324.5,117.86 -48.69,18.16 -90.11,48.55 -128.26,83.57 -63.89,58.63 -127.7,117.35 -192.27,175.21 -90.75,81.32 -136.07,183.52 -130.1,304.09 13.77,277.46 137.17,495.38 369.4,648.36 100.58,66.27 211.99,80.46 327.88,44.15 36.87,-11.56 73.48,-24.74 108.75,-40.46 93.36,-41.64 190.16,-59.16 290.16,-35.43 150.5,35.7 351.6,-74.14 393.3,-238.08 24.4,-95.89 48.8,-184.06 42.6,-307.15"
         style="fill:#c46546;fill-opacity:1;fill-rule:nonzero;stroke:none"
         id="path14" /><path
         d="m 8137.69,9886.53 c -6.39,-44.79 -11.15,-92.38 -20.47,-139.07 -7.72,-38.6 -28.02,-72.34 -55.87,-100.39 -35.98,-36.25 -60.75,-79.23 -81.74,-125.28 -36.4,-79.84 -73.29,-159.48 -111.49,-238.47 -38.61,-79.86 -91.44,-150.24 -155.1,-211.42 -60.79,-58.42 -123.67,-114.97 -188.73,-168.56 -39.47,-32.51 -85.08,-56.92 -137.22,-66.07 -35.97,-6.31 -71.33,-3.71 -104.14,10.43 -134.29,57.87 -263.96,123.96 -379.93,214.73 -110.6,86.55 -152.35,197.63 -126.71,335.26 19.47,104.51 46.24,206.7 89.07,304.41 46.31,105.62 72.6,215.71 71.38,331.8 -0.9,85.7 29.31,160.3 93.94,215.9 180.17,154.7 386.28,249.3 627.42,252.2 146.93,1.7 264.33,-60.2 351.46,-178.6 57.97,-78.8 91.36,-168 106.37,-263.9 8.79,-56.2 14.32,-112.91 21.76,-172.97"
         style="fill:#c46546;fill-opacity:1;fill-rule:nonzero;stroke:none"
         id="path16" /><path
         d="m 4218.11,5961.87 c -113.95,-5.87 -224.75,16.87 -335.76,37.27 -52.66,9.67 -105.7,18.09 -157.57,31.05 -141.06,35.22 -245.2,116.95 -306.24,250.61 -26.86,58.79 -65.06,109.87 -109.05,156.53 -47.09,49.96 -88.83,103.14 -124.71,162.2 -31.81,52.33 -73.05,98.94 -110.23,147.99 -24.79,32.7 -51.79,63.93 -74.34,98.1 -106.57,161.53 -119.79,333.49 -52.44,512.84 31.4,83.61 94.27,125.7 182.67,131.08 154.21,9.38 286.44,-42.26 400.54,-144.23 47.87,-42.79 88.96,-91.56 126.69,-143.31 49.04,-67.28 96.22,-136.02 147.67,-201.39 32.98,-41.9 69.88,-81.42 109.21,-117.43 55.61,-50.93 122.85,-82.18 196.55,-98.61 144.38,-32.19 271.19,-99.57 384.02,-193.72 81.76,-68.2 140.36,-152.37 165.12,-257.46 16.64,-70.59 4.97,-136.55 -39.41,-194.36 -87.6,-114.08 -199.34,-182.16 -347.97,-177.25 -18.23,0.6 -36.5,0.09 -54.75,0.09"
         style="fill:#c46546;fill-opacity:1;fill-rule:nonzero;stroke:none"
         id="path18" /><path
         d="m 7500.01,1498 c -96.73,1.1 -184.65,27.2 -261.55,87.2 -8.04,6.2 -16.73,11.9 -25.78,16.6 -107.72,55.5 -194.56,134.7 -264.72,232.8 -73.56,102.9 -125.93,216.76 -170.99,334.12 -8.87,23.08 -12.57,48.62 -15.47,73.4 -7.7,65.67 -13.16,131.6 -20.43,197.32 -15.1,136.79 21.65,258.31 111.13,362 40.07,46.43 85.43,88.67 131.07,129.84 51.45,46.42 115.19,53.9 180.28,42.03 149.03,-27.15 271.48,-97.59 355.11,-227.56 29.61,-46 59.94,-91.62 87.81,-138.67 53.72,-90.74 127.73,-157.35 227.31,-193.1 95.22,-34.19 171.15,-95.23 236.92,-169.27 58.96,-66.37 84.36,-148.25 92.27,-235.04 9.91,-108.77 -12.6,-210.77 -70.32,-304.57 -35.85,-58.2 -85.56,-97.5 -151.93,-113.8 -116.13,-28.7 -232.36,-57 -348.96,-83.6 -29.78,-6.8 -61.13,-6.7 -91.75,-9.7"
         style="fill:#c46546;fill-opacity:1;fill-rule:nonzero;stroke:none"
         id="path20" /><path
         d="m 4794.18,7769.87 c -37.19,4.59 -74.9,6.73 -111.45,14.39 -48.15,10.08 -89.81,35.03 -120.31,73.72 -38.09,48.31 -76.09,97.19 -108.69,149.22 -59.46,94.9 -74.02,199.75 -55.84,309.36 8.36,50.46 29.92,95.7 61.37,135.82 49.5,63.14 72.66,134.01 78.26,214.53 8.88,127.48 57.34,241.49 141.47,338.06 73.9,84.82 171.79,127.77 281.41,140.19 61.86,7 125.47,7.45 187.51,1.99 119.65,-10.53 210.12,-72.44 269.36,-176.25 44.04,-77.19 84.85,-156.32 124.47,-235.9 40.14,-80.62 77.18,-162.77 115.32,-244.37 21.9,-46.83 37.32,-95.74 41.45,-147.43 7.11,-88.86 -19.6,-166.96 -80.32,-232.14 -20.84,-22.37 -44.54,-42.73 -69.38,-60.63 -110.45,-79.57 -231.43,-141.36 -351.35,-204.81 -12.91,-6.84 -27.52,-11.26 -41.86,-14.45 -119.13,-26.47 -238.57,-51.2 -361.42,-61.3"
         style="fill:#c46546;fill-opacity:1;fill-rule:nonzero;stroke:none"
         id="path22" /><path
         d="m 7353.51,4808.41 c -2.88,-21.38 -3.98,-43.18 -8.95,-64.05 -17.11,-71.89 -62.32,-118.01 -133.55,-136.73 -86.78,-22.82 -174.17,-30.49 -263.68,-13.15 -65.44,12.68 -127.71,31.09 -187.05,62.25 -112.59,59.14 -234.26,87.89 -360.31,98.4 -76.06,6.33 -147.48,27.88 -216.1,60.03 -89.18,41.77 -170.34,96.84 -250.42,153.42 -44.53,31.46 -56.4,78.11 -52.67,129.89 2.61,36.26 7.22,72.39 9.08,108.68 3.03,59.14 22.89,112.65 60.56,156.79 38.32,44.88 80.2,87.41 124.76,126.06 50.71,43.99 114.05,51.94 177.79,39.5 167.67,-32.73 335.32,-65.91 502.04,-103.09 165.72,-36.97 301.16,-126.34 412.66,-253.28 52.87,-60.18 98.52,-125.53 138.63,-194.75 30.33,-52.38 46.17,-108.87 47.21,-169.97"
         style="fill:#c46546;fill-opacity:1;fill-rule:nonzero;stroke:none"
         id="path24" /><path
         d="m 3893.87,3387.34 c -45.62,0 -91.3,-1.52 -136.85,0.31 -122.68,4.89 -211.81,64 -266.19,173.14 -11.8,23.67 -16.06,52.26 -18.76,79.08 -13.34,132.71 -24.83,265.61 -37.29,398.4 -11.23,119.7 -10.66,239.18 5.24,358.45 1.51,11.27 3.96,22.46 6.75,33.49 18.83,74.39 73.12,116.25 149.61,113.64 38.86,-1.33 75.7,-8.42 109.8,-31.54 38.55,-26.14 79.74,-49.06 121.74,-69.32 195.85,-94.47 305.62,-256.61 364.97,-459.16 26.08,-89.02 35.66,-180.93 48.84,-272.3 8.25,-57.14 2.47,-113.31 -7.53,-168.84 -18.38,-102.15 -72.09,-150.52 -176.32,-157.91 -54.42,-3.86 -109.34,-0.69 -164.03,-0.69 0.01,1.09 0.02,2.17 0.02,3.25"
         style="fill:#c46546;fill-opacity:1;fill-rule:nonzero;stroke:none"
         id="path26" /><path
         d="m 1864.16,5019.57 c 41.71,-5.62 83.88,-9.05 125.04,-17.43 54.57,-11.1 94.71,-44.11 106.82,-98.93 20.84,-94.35 63.43,-177.59 117.01,-256.45 44.87,-66.03 55.6,-139.22 39.85,-215.85 -5.38,-26.19 -16.55,-52.73 -31.08,-75.23 -55.7,-86.24 -114.78,-170.21 -184.27,-246.2 -19.22,-21.01 -39.85,-40.75 -59.97,-60.94 -85.48,-85.8 -187.54,-106.11 -302.45,-77.09 -109.27,27.57 -196.87,87.39 -265.51,176.09 -44.92,58.05 -80.25,121.81 -111.07,188.08 -19.65,42.24 -18.65,86.29 -6.23,130.41 3.4,12.04 7.07,24.13 12.04,35.58 61.72,142.49 143.82,271.48 250.75,384.82 84.26,89.3 187.45,130.15 309.07,133.14"
         style="fill:#c46546;fill-opacity:1;fill-rule:nonzero;stroke:none"
         id="path28" /><path
         d="m 6097.23,3535.26 c 2.05,-56.42 -0.14,-106.33 -14.08,-155.21 -19.76,-69.32 -59.13,-125.19 -115.6,-169.31 -47.12,-36.81 -97.67,-41.16 -150.19,-13.07 -20.02,10.71 -39.75,22.74 -57.43,36.9 -52.17,41.81 -111.95,63.34 -177.01,75.77 -208.44,39.83 -355.51,156.16 -433.03,355.58 -13.98,35.95 -22.43,74.03 -33.7,111.05 -12.63,41.45 -5.46,80.36 21.51,112.77 29.73,35.73 60.02,72.7 96.56,100.63 45.81,35.02 97.31,63.07 148.1,90.93 35.42,19.42 74.21,18.35 112.93,6.02 68.31,-21.72 136.76,-43.09 205.51,-63.38 60.29,-17.81 119.15,-38.83 173.4,-71.04 146.47,-86.96 221.34,-215.44 223.02,-386.1 0.11,-12.54 0.01,-25.08 0.01,-31.54"
         style="fill:#c46546;fill-opacity:1;fill-rule:nonzero;stroke:none"
         id="path30" /><path
         d="m 4654.75,1523.7 c -89.22,10.3 -179.76,4 -268.31,25.8 -131.25,32.3 -250.54,90.2 -362.47,163.8 -68.91,45.3 -97.31,115.5 -104.17,195.1 -3.22,37.5 -3.01,75.2 10.24,111.49 28.99,79.47 87.13,126.6 167.07,147.36 98.17,25.47 196.87,18.91 294.8,-2.04 162.09,-34.65 301.79,-113.61 426.73,-220.31 31.7,-27.1 53.75,-62.2 69.99,-100.2 16.87,-39.5 15.68,-80.4 0.42,-120.1 -29.1,-75.9 -80.07,-134.6 -146.04,-180.8 -26.44,-18.5 -56.63,-22.9 -88.26,-20.1"
         style="fill:#c46546;fill-opacity:1;fill-rule:nonzero;stroke:none"
         id="path32" /></g></g></svg>
