<?xml version="1.0" encoding="UTF-8" standalone="no"?>
<!-- Created with Inkscape (http://www.inkscape.org/) -->

<svg
   version="1.1"
   id="svg2"
   xml:space="preserve"
   width="1600"
   height="1600"
   viewBox="0 0 1600 1600"
   sodipodi:docname="RG-ThreeLeaf.eps"
   xmlns:inkscape="http://www.inkscape.org/namespaces/inkscape"
   xmlns:sodipodi="http://sodipodi.sourceforge.net/DTD/sodipodi-0.dtd"
   xmlns="http://www.w3.org/2000/svg"
   xmlns:svg="http://www.w3.org/2000/svg"><defs
     id="defs6" /><sodipodi:namedview
     id="namedview4"
     pagecolor="#ffffff"
     bordercolor="#666666"
     borderopacity="1.0"
     inkscape:pageshadow="2"
     inkscape:pageopacity="0.0"
     inkscape:pagecheckerboard="0" /><g
     id="g8"
     inkscape:groupmode="layer"
     inkscape:label="ink_ext_XXXXXX"
     transform="matrix(1.3333333,0,0,-1.3333333,0,1600)"><g
       id="g10"
       transform="scale(0.1)"><path
         d="m 5249.43,4046.67 c 1.12,22.25 3.12,44.49 3.22,66.75 0.5,113.9 1.52,227.81 0.41,341.71 -1.18,121.01 7.95,240.96 25.56,360.72 11.09,75.37 14.07,151.9 23.41,227.58 10.72,86.94 24.94,173.46 36.65,260.29 5.31,39.43 10.47,79.08 11.9,118.77 7.58,210.89 -19.29,417.69 -71.46,622.06 -29.81,116.79 -52.68,235.34 -78.67,353.1 -1.72,7.77 -2.4,15.93 -5.2,23.29 -43.88,115.5 -63.65,237.12 -91.88,356.63 -12.78,54.14 -31.46,106.87 -46.36,160.55 -10.94,39.39 -22.05,78.91 -29.61,119.02 -14.32,76.02 -29.95,152.11 -37.98,228.9 -8.62,82.51 -11,165.83 -12.73,248.87 -2.13,102.47 -1.45,205.02 -0.76,307.52 0.73,109.4 6.14,218.53 23.82,326.75 1.83,11.19 2.68,22.71 2.35,34.04 -3.08,104.75 16.66,206.22 44.51,306.37 58.82,211.55 117.61,423.13 177.81,634.3 43.97,154.23 91.49,307.46 135.06,461.8 57.79,204.72 74.73,413.91 62.15,625.81 -4.04,68.2 -9.32,136.4 -10.45,204.6 -0.8,47.7 4.23,95.4 7.16,143.1 2.37,38.6 5.78,77.1 8.16,115.7 1.85,30 7.27,58.8 23.37,84.7 22.05,35.4 53.9,44.3 90.87,25.6 38.17,-19.3 61.54,-50 68.25,-92.4 8.35,-52.7 16.46,-105.6 23.81,-158.5 11.81,-85.2 36.02,-166.9 70.11,-245.5 40.76,-94 83.4,-187.1 125.16,-280.6 91.76,-205.6 154.98,-420.28 205.67,-639.15 23.11,-99.73 48.82,-198.89 75.18,-297.82 34.22,-128.49 48.39,-259.17 50.35,-391.82 4.19,-284.31 -16.82,-566.62 -64.48,-846.89 -15.47,-90.99 -39.21,-179.89 -68.81,-267.48 -15.6,-46.16 -22.84,-95.08 -36.9,-141.85 -36.35,-120.91 -74.39,-241.33 -111.76,-361.95 -79.18,-255.64 -141.97,-515.42 -198.67,-776.86 -22.89,-105.58 -52.04,-209.79 -77.52,-314.82 -33.05,-136.22 -52.36,-274.86 -73.03,-413.32 -14.67,-98.36 -17.37,-197.22 -20.64,-296.23 -0.91,-27.24 -3.25,-54.66 -7.84,-81.5 -16.95,-99.31 -20.45,-199.24 -16.55,-299.61 4.69,-121.07 -1.98,-240.83 -28.15,-359.85 -12.64,-57.47 -14.69,-117.3 -20.79,-176.15 -13.74,-132.46 -27.18,-264.97 -40.4,-397.49 -5.66,-56.77 -4.73,-113.04 2.3,-170.18 8.87,-72.13 10.62,-145.24 13.34,-218 2.3,-61.44 0.13,-123.06 2.69,-184.48 1.94,-46.53 8.46,-92.86 12.52,-139.3 3.07,-35.07 5.74,-70.18 8.09,-105.3 2.49,-37.46 3.71,-75.02 7.04,-112.4 0.8,-8.88 5.64,-20.52 12.48,-25.05 11.32,-7.47 21.32,1.67 29.04,10.66 15.57,18.1 31.9,35.64 46.24,54.68 95.22,126.43 187.8,254.91 285.47,379.4 116.55,148.55 255.66,275.16 401.75,393.96 65.4,53.21 127.9,109.15 189.1,167.24 91.58,86.96 188.88,167.96 284.61,250.49 91.41,78.82 184.47,155.75 275.88,234.58 165.72,142.9 350.85,253.46 557.53,324.39 177.59,60.95 344.3,144 506.4,236.42 219.67,125.23 433.93,259.16 632.47,416.93 170.43,135.43 333.42,279.45 496.06,423.93 7.64,6.8 15.08,14 21.59,21.86 64.07,77.38 136.55,146.52 208.78,216.07 165.99,159.86 318.8,331.67 460.23,513.62 12.57,16.16 25.38,32.25 39.39,47.14 13.63,14.5 31.72,18.98 50.15,11.64 18.61,-7.42 26.71,-23.54 27.94,-43.35 2.15,-34.61 -10.98,-64.59 -27.91,-93.43 -41.59,-70.89 -76.1,-145.01 -103.52,-222.54 -46.98,-132.79 -73.26,-270.04 -87.63,-409.65 -17.66,-171.46 -55.85,-336.41 -141.79,-488.14 -33.62,-59.37 -63.26,-121.03 -94.37,-181.82 -49.29,-96.32 -114.68,-180.47 -192.42,-255.27 -168.21,-161.8 -352.53,-302.22 -555.44,-417.93 -11.87,-6.76 -24.1,-13.02 -35.31,-20.76 -162.84,-112.34 -342.8,-187.44 -530.78,-245.51 -95.62,-29.53 -190.82,-60.49 -286.2,-90.83 -88.28,-28.06 -179.08,-43 -271.01,-52.14 -118.87,-11.81 -239.31,-15.23 -354.76,-48.32 -94.98,-27.21 -188.54,-60.06 -281.22,-94.52 -136.44,-50.73 -271.72,-104.6 -407.1,-158.12 -66.04,-26.11 -125.81,-62.03 -179.48,-109.95 -28.19,-25.16 -63.82,-44.34 -99.15,-58.69 -91.24,-37.03 -165.3,-94.77 -225.36,-171.79 -35.73,-45.8 -72.19,-91.04 -107.19,-137.38 -21.25,-28.13 -42.39,-56.71 -59.89,-87.2 -25.84,-45 -59.34,-83.02 -95.03,-120.12 -45.73,-47.55 -89.34,-97.15 -133.16,-146.49 -12.04,-13.56 -22.46,-28.77 -32.12,-44.18 -50.11,-79.94 -96.55,-162.09 -149.29,-240.54 -36.38,-54.12 -54.32,-117.38 -72.63,-179.81 -49.93,-170.27 -100.32,-340.41 -150.72,-510.55 -35.22,-118.88 -70.14,-237.88 -106.44,-356.48 -18.97,-62 -40.16,-123.3 -61.17,-184.7 -31.32,-91.4 -63.68,-182.6 -94.91,-274.1 -9.04,-26.5 -21.54,-50.1 -43.52,-68 -38.1,-30.9 -85.97,-15.8 -99.36,31.1 -7.8,27.3 -6.13,54.1 3.35,80.5 42.99,120 86.28,239.8 128.92,359.9 15.61,43.9 28.96,88.7 44.76,132.5 15.4,42.8 33.4,84.6 48.71,127.4 7.61,21.3 12.33,43.6 17.37,65.6 26.85,117.61 55.57,234.82 79.26,353.04 14.96,74.63 23.35,150.64 32.74,226.29 18.1,145.71 34.2,291.67 52.41,437.37 8.14,65.19 2.43,129.35 -6.09,193.92 -16.23,122.99 -30.8,246.21 -46.15,369.32 -5.21,41.79 -9.23,83.8 -16.34,125.27 -11.06,64.56 -35.34,124.55 -67.66,181.45 -28.68,50.48 -56.96,101.17 -85.03,151.99 -56.01,101.41 -127.4,191.71 -206.51,275.31 -29.86,31.56 -68.94,56.02 -107.26,77.62 -142.71,80.48 -286.6,158.91 -430.65,236.98 -31.89,17.28 -65.8,31.11 -99.55,44.59 -290.5,116.04 -581.4,231.04 -871.61,347.76 -70.67,28.42 -139.3,61.9 -208.78,93.25 -72.26,32.6 -136.58,77.57 -196.02,129.35 -48.07,41.89 -94.27,85.92 -141.53,128.74 -44.72,40.53 -89.22,81.32 -134.77,120.89 -54.52,47.38 -100.94,101.86 -144.04,159.4 -64.87,86.59 -129.68,173.2 -194.06,260.15 -10.78,14.56 -19.92,30.48 -28.64,46.42 -94.48,172.86 -164.94,354.54 -204.15,548.15 -17.15,84.69 -39.82,168.26 -57.17,252.91 -7.26,35.45 -9.32,72.36 -10.07,108.68 -1.93,93.37 -2.86,186.78 -2.25,280.16 0.88,132.95 28.75,262.03 58.04,390.96 36.45,160.35 96.74,312.86 149.55,467.9 20.84,61.19 34.88,124.69 51.91,187.17 2.69,9.86 4.08,20.13 7.41,29.75 34.94,101.09 68.71,202.62 105.92,302.86 18.57,50 44.51,97.21 65.47,146.38 24.49,57.46 46.92,115.81 70.8,173.55 13.89,33.58 25.46,68.75 44.05,99.6 42.32,70.23 69.43,145.02 85.42,225.28 16.02,80.37 34.42,159.98 39.64,242.28 3.4,53.81 36.07,92.83 80.37,120.55 33.78,21.13 70.05,7.93 82.3,-30.19 7.89,-24.55 11.66,-51.18 12.7,-77.06 3.37,-84.19 4.5,-168.48 6.75,-252.72 3.41,-127.73 21.77,-253.96 38.13,-380.41 4.67,-36.07 9.22,-72.42 9.71,-108.7 0.79,-59.3 7.13,-117.84 13.05,-176.76 8.08,-80.25 9.3,-161.35 10.25,-242.12 1.22,-103.6 -0.36,-207.23 -1.42,-310.85 -1.59,-154.72 17.9,-307.29 58.1,-456.04 48.05,-177.84 100.02,-354.82 156.85,-530.05 55.96,-172.56 135.69,-335.36 225.25,-493.06 42.72,-75.23 86.57,-149.84 130.88,-224.15 43.93,-73.67 97.98,-139.65 157.03,-201.71 166.72,-175.21 349.79,-332.75 530.78,-492.58 57.18,-50.5 113.96,-101.71 167.49,-155.98 40.63,-41.19 75.91,-87.67 113.39,-131.94 8.82,-10.42 16.06,-22.3 25.52,-32.05 121.4,-125.15 214.59,-271.22 307.88,-417 110.63,-172.85 207.62,-353.27 290.61,-541.02 20.68,-46.78 37.2,-95.39 56.82,-142.67 10,-24.1 22.12,-47.37 34.33,-70.47 4.41,-8.34 11.88,-15.05 17.95,-22.51 3.79,1.01 7.58,2.01 11.37,3.02"
         style="fill:#284437;fill-opacity:1;fill-rule:nonzero;stroke:none"
         id="path12" /></g></g></svg>
