<?xml version="1.0" encoding="UTF-8" standalone="no"?>
<!-- Created with Inkscape (http://www.inkscape.org/) -->

<svg
   version="1.1"
   id="svg2"
   xml:space="preserve"
   width="1600"
   height="1600"
   viewBox="0 0 1600 1600"
   sodipodi:docname="RG-TwoStems.eps"
   xmlns:inkscape="http://www.inkscape.org/namespaces/inkscape"
   xmlns:sodipodi="http://sodipodi.sourceforge.net/DTD/sodipodi-0.dtd"
   xmlns="http://www.w3.org/2000/svg"
   xmlns:svg="http://www.w3.org/2000/svg"><defs
     id="defs6" /><sodipodi:namedview
     id="namedview4"
     pagecolor="#ffffff"
     bordercolor="#666666"
     borderopacity="1.0"
     inkscape:pageshadow="2"
     inkscape:pageopacity="0.0"
     inkscape:pagecheckerboard="0" /><g
     id="g8"
     inkscape:groupmode="layer"
     inkscape:label="ink_ext_XXXXXX"
     transform="matrix(1.3333333,0,0,-1.3333333,0,1600)"><g
       id="g10"
       transform="scale(0.1)"><path
         d="m 6042.03,5741.17 c 22.99,33.71 23.27,33.9 4.2,63.31 -39.27,60.54 -77.45,121.85 -118.74,180.98 -37.27,53.37 -78.03,104.31 -117.47,156.15 -2.51,3.3 -6.94,5.12 -9.47,6.92 -35.98,-47.49 -70.82,-93.47 -107.99,-142.52 114.79,-90.29 244.21,-159.67 349.47,-264.84 z M 5538.55,4574.19 c 15.65,-12.15 27.14,-21.64 39.21,-30.32 87.47,-62.98 161.19,-140.42 232.92,-220.06 17.85,-19.83 35.94,-39.92 56.53,-56.67 54.17,-44.03 109.76,-86.32 164.83,-129.23 5.45,-4.24 11.27,-8.01 16.91,-12 -102.03,198.16 -245.56,361.26 -407.06,514.56 -32.38,-20.77 -66.18,-42.45 -103.34,-66.28 z m -369.27,983.71 c -41.56,-32.7 -74.93,-61.72 -111.13,-86.65 -33.1,-22.79 -48.48,-49.86 -51.21,-91.35 -4.95,-75.15 -5.04,-148.49 23.18,-219.69 5.97,-15.07 10.95,-30.77 14.34,-46.61 20.02,-93.55 81.82,-165.93 127.04,-246.32 19.17,-34.11 55.35,-58.63 84.93,-88.64 57.12,52.96 112,103.84 168.02,155.78 -44.9,54.82 -73.23,114.66 -99.46,175.59 -29.34,68.17 -59.25,136.12 -86.65,205.07 -14.87,37.46 -26.05,76.49 -37.04,115.35 -11.28,39.87 -20.3,80.39 -32.02,127.47 z m 353.32,901.07 c -3.36,6.9 -5.56,12.12 -8.34,17.01 -36.84,64.64 -73.45,129.4 -110.74,193.77 -59.52,102.77 -114.52,207.54 -151.71,320.96 -11.93,36.36 -30.26,70.62 -42.04,107.01 -20.37,62.91 -39.54,126.31 -56.08,190.32 -11.02,42.65 -16.46,86.74 -24.83,130.1 -1.16,6 -4.83,11.5 -8.26,19.36 -24.51,-18.68 -46.19,-36.17 -68.92,-52.16 -16.08,-11.32 -25.94,-24.66 -29.36,-44.78 -11.48,-67.59 -25.34,-134.77 -36.73,-202.37 -20.34,-120.71 -17.06,-241.01 10.81,-360.29 19.45,-83.24 54.58,-159.57 95.6,-234.76 50.78,-93.06 131.62,-154.79 207.11,-225.46 75.68,47.84 149.03,94.22 223.49,141.29 z m 1339.27,207.36 c 0.23,39.2 -16.46,69.91 -31.34,101.5 -49.9,105.93 -115.72,203.58 -153.16,316.37 -30.67,92.41 -74.34,180.5 -112.13,270.55 -2.23,5.32 -3.5,11.06 -5,16.66 -42.55,159.54 -85.14,319.07 -127.51,478.66 -2.95,11.15 -4.3,22.74 -6.17,34.16 -10.32,63.01 -20.65,126.02 -30.79,189.07 -4.05,25.21 -8.76,50.39 -11.2,75.77 -6.89,71.68 -10.88,143.69 -19.65,215.12 -6.97,56.77 -8.48,112.97 -1.19,169.57 0.15,1.14 -3.13,2.72 -6.73,5.66 -3.94,-6.78 -8.1,-13.2 -11.53,-20 -14.7,-29.07 -27.11,-59.51 -44.09,-87.17 -58.45,-95.2 -91.45,-200.45 -124.12,-305.94 -29.14,-94.07 -32.18,-190.29 -18.09,-286.67 7.02,-48.01 17.36,-96.73 34.92,-141.73 29.46,-75.53 55.31,-153.22 100.93,-221.59 0.63,-0.94 0.9,-2.14 1.39,-3.2 51.24,-110.36 131.92,-202.66 189.87,-308.96 7.66,-14.06 20.6,-25.18 30.64,-38 27.99,-35.71 59.29,-69.41 82.95,-107.8 75.35,-122.26 168.64,-231.22 252.58,-347.06 1.15,-1.59 3.81,-2.09 9.42,-4.97 z M 6295.05,5236.95 c -8.71,-13.41 -14.06,-20.75 -18.49,-28.61 -40.03,-71.24 -86.67,-138 -139.04,-200.57 -18.51,-22.13 -39.34,-43.16 -62.21,-60.63 -73.03,-55.8 -147.67,-109.51 -221.39,-164.43 -40.84,-30.42 -81.09,-61.63 -123.78,-94.15 63.18,-58.08 119.22,-121.25 171.78,-188.01 56.07,-71.24 117.54,-138.38 165.16,-215.9 26.69,-43.45 50.13,-88.92 74.46,-133.77 7.69,-14.16 13.34,-29.41 20.29,-43.99 9.96,-20.9 19.96,-41.8 30.52,-62.4 5.37,-10.46 12.02,-20.26 20.49,-34.38 17.18,28.74 17.58,54.45 19.53,79.43 4.89,62.52 1.09,125.81 17.28,187.33 1.45,5.5 1.58,11.67 0.89,17.36 -7.56,62.1 9.96,119.81 30.09,177.21 28.45,81.09 55.96,162.51 85.04,243.36 8.62,23.95 9.54,47.45 6.46,72.03 -3.19,25.37 -7.7,50.88 -7.66,76.31 0.18,91.7 -19.46,180.19 -40.97,268.42 -8.15,33.38 -17.87,66.37 -28.45,105.39 z m 2050.14,-982.19 c -17.46,15.94 -36.04,22.32 -54.58,27.48 -84.89,23.63 -168.68,50.03 -256.11,65.69 -86.97,15.59 -173.57,30.99 -261.68,37.31 -11.39,0.82 -24.2,1.45 -34.27,-2.79 -20.12,-8.46 -40.23,-8.81 -61.29,-8.37 -14.92,0.31 -30.4,-1.41 -44.77,-5.35 -53.35,-14.6 -110.67,-14.77 -160.08,-43.69 -46.28,-1.03 -83.9,-25.75 -122.99,-45.77 -81.75,-41.89 -164.56,-80.73 -251.15,-112.29 -63.12,-23.01 -123.14,-54.57 -184.53,-82.37 -25.24,-11.45 -50.35,-23.19 -75.64,-34.53 -26.49,-11.87 -54.07,-21.76 -76.65,-41.61 34.59,5.18 67.42,11.13 100.48,14.79 34.51,3.81 69.34,8.51 103.87,7.45 148.29,-4.5 292.72,-36.22 437.07,-66.88 94.65,-20.12 188.39,-22.22 283.54,-3.16 106.54,21.36 197.43,71.13 281.56,138.34 49.65,39.66 103.63,72.61 165.02,95.5 65.89,24.56 132.04,43.7 201.24,53.81 2,0.29 3.77,2.14 10.96,6.44 z M 7756.22,9538 c -1.92,0.9 -3.84,1.79 -5.76,2.68 -6.52,-6.06 -13.2,-11.95 -19.54,-18.2 -34.8,-34.31 -70.08,-68.14 -104.05,-103.25 -27.36,-28.26 -56.52,-55.69 -78.87,-87.68 -60.24,-86.25 -95.99,-184.53 -110.72,-287.15 -16.31,-113.6 -29.28,-228.62 -16.28,-344.21 2.59,-23.11 4.83,-46.28 6.7,-69.46 9.89,-123.26 28.22,-244.81 72.31,-361.22 1.64,-4.32 3.62,-8.77 4,-13.27 4.78,-57 29.52,-107.13 53.7,-157.46 7.55,-15.7 16.29,-30.95 22.39,-47.19 12.62,-33.64 22.57,-68.32 35.94,-101.64 20.74,-51.72 44.36,-102.28 65.09,-154.01 39.34,-98.1 78.68,-196.24 115.63,-295.26 17.42,-46.68 29.2,-95.47 43.8,-143.22 2.11,-6.88 5.71,-13.31 8.61,-19.95 2.29,0.63 4.59,1.27 6.87,1.91 -4.12,28.46 -6.21,57.4 -12.72,85.29 -26.8,114.63 -42.85,230.74 -54.14,347.81 -8.91,92.44 -16.36,185.53 -34.07,276.45 -16.75,85.94 -21.61,172.86 -34.48,258.96 -6,40.11 -2.21,82.3 -12.47,121 -17.17,64.86 -24.34,130.52 -25.4,196.62 -1.21,76.39 -19.01,152.59 -3.5,229.27 1.56,7.74 -0.89,16.22 -0.78,24.34 1.08,75.43 2.07,150.87 3.76,226.3 0.25,11.48 4.18,22.85 6.11,34.32 2.7,16.01 5.71,32 7.57,48.11 6.52,56.5 11.91,113.14 19.05,169.55 6.41,50.68 11.84,101.67 34.2,148.9 4.51,9.53 4.8,21.05 7.05,31.66 z M 5472.7,4978.94 c 50.01,47.41 98.29,92.56 145.75,138.56 14.12,13.68 27,28.95 38.69,44.78 52.5,71.04 102.85,143.72 156.84,213.58 68.51,88.64 125.28,184.65 183.51,279.87 8.96,14.65 7.75,25.83 -3.49,37.21 -4.89,4.96 -9.91,9.87 -15.36,14.19 -98.49,77.94 -197.02,155.83 -295.65,233.59 -9.89,7.81 -20.48,14.73 -32.6,23.39 -126.91,-138.49 -276.25,-247.84 -421.31,-360.07 22.78,-204.74 170.7,-531.5 243.62,-625.1 z M 7107,5219.78 c 62.99,2.38 117.71,12.72 172.23,23.69 56.4,11.34 113.04,12.79 170.17,8.4 64.92,-5 129.87,-12.43 194.84,-12.82 105.12,-0.64 208.71,-9.97 310.7,-35.81 12.35,-3.12 25.1,-4.88 37.77,-6.46 89.97,-11.25 179.9,-22.88 269.97,-33.24 104.62,-12.05 209.19,-13.99 310.45,20.32 51.62,17.48 101.98,39.18 151.69,61.65 59.57,26.91 116.8,60.01 163.59,105.32 54.23,52.5 118.08,94.28 166.65,152.84 16.26,19.61 35.55,36.75 51.28,56.74 38.24,48.59 78.35,95.17 127.15,133.67 5.5,4.35 9.32,10.83 16.4,19.29 -8.1,-1.04 -11.54,-0.96 -14.65,-1.94 -81.92,-26.06 -163.12,-54.71 -245.91,-77.62 -74.95,-20.73 -150.84,-41.64 -227.71,-50.82 -93.04,-11.11 -187.57,-14.12 -281.38,-13.11 -129.58,1.4 -258.15,-6.33 -385.39,-29.15 -110.74,-19.86 -220.94,-42.19 -327.13,-82.43 -69.3,-26.26 -142.07,-43.38 -213.21,-64.81 -133.55,-40.25 -266.18,-83.22 -395.51,-135.74 -17.62,-7.15 -36.87,-12.97 -52,-37.97 z m 1570.62,1122.28 c 0.17,-2.12 0.35,-4.24 0.52,-6.37 13.13,-0.47 26.27,-1.72 39.36,-1.29 130.42,4.3 259.79,18.75 388.34,40.82 60.65,10.41 121,23 181.92,31.45 103.11,14.29 195.66,57.92 288.41,100.79 38.83,17.94 75.37,40.85 112.84,61.7 7.07,3.94 13.67,8.75 20.37,13.31 30.72,20.91 61.15,42.26 92.14,62.75 45.58,30.14 91.78,59.32 137.18,89.71 12.44,8.34 23.08,19.41 34.34,29.45 25.92,23.12 50.46,47.96 77.76,69.26 57.4,44.71 108.5,95.35 148.4,156.04 46.7,70.89 87.4,145.91 137,214.58 99.4,137.58 165.1,293.47 247.5,440.22 28.9,51.44 49.4,107.95 94.3,149.7 27.2,25.32 52.1,53.17 77.5,80.42 6.2,6.73 10.2,15.56 15.3,23.43 -1.9,2.07 -3.8,4.14 -5.8,6.21 -10.4,-3.64 -21.6,-5.77 -31,-11.17 -71.6,-41.15 -143.1,-82.5 -214,-124.77 -22.1,-13.18 -44.4,-23.88 -69.5,-30.98 -23.1,-6.52 -44.3,-19.67 -66,-30.61 -12.4,-6.25 -24.2,-13.64 -36,-21.02 -28.5,-17.86 -59.3,-32.99 -84.6,-54.65 -61,-52.28 -117.1,-109.65 -165.7,-174.16 -46.1,-61.31 -93.6,-121.62 -140.75,-182.21 -5.65,-7.26 -12.61,-13.51 -18.98,-20.21 -37.62,-39.57 -79.02,-76.23 -112.08,-119.29 -67.24,-87.59 -150.6,-157.86 -232.71,-229.87 -31.45,-27.59 -62.4,-55.77 -93.26,-84.03 -18.76,-17.18 -35.78,-36.46 -55.62,-52.24 -31.67,-25.21 -62.77,-50.05 -91.6,-79.3 -28.34,-28.76 -70.18,-44.06 -105.62,-66.02 -87.97,-54.5 -173.77,-112.85 -264.13,-162.99 -58.44,-32.42 -122.96,-54.19 -185.57,-78.64 -39.31,-15.35 -80.13,-26.81 -120.26,-40.02 z M 4799.44,3147.53 c 3.14,1.05 6.28,2.12 9.42,3.17 0,7.81 0.65,15.69 -0.1,23.42 -10.19,105.56 -24.17,210.43 -57.87,311.6 -26.87,80.66 -36.22,163.23 -28.54,247.88 10.55,116.25 34.75,229.99 63.49,342.82 11.17,43.84 19.59,89.81 39.43,129.77 57.08,114.93 126.56,222.15 212.92,318.24 60.5,67.34 116.95,138.31 176.75,209.5 -191.46,166.79 -265.29,384.83 -285.49,630.13 -5.49,-4.11 -12.17,-8.19 -17.75,-13.45 -79.63,-74.98 -160.83,-148.39 -238.17,-225.66 -90.79,-90.69 -156.28,-199.41 -209.29,-315.58 -11.95,-26.18 -20.21,-54.58 -26.27,-82.81 -21.22,-98.94 -41.1,-198.18 -60.81,-297.43 -16.85,-84.84 -26.84,-170.39 -15.69,-256.81 4.9,-37.95 16.55,-75.09 20.66,-113.08 7.45,-68.91 32.62,-129.66 70.21,-187.48 35.44,-54.52 69.1,-110.76 97.35,-169.24 40.46,-83.72 75.08,-170.25 112.57,-255.42 39.38,-89.42 79.08,-178.7 118.99,-267.88 4.95,-11.07 12.07,-21.15 18.19,-31.69 z m 3864.34,4048.11 c 7.76,2.64 11.1,3.05 13.58,4.73 81.76,55.51 163.36,111.26 245.16,166.72 70.29,47.67 139.05,97.93 211.79,141.56 51.35,30.81 98.3,66.07 142.85,105.34 84.64,74.61 170.74,147.63 253.39,224.39 52.68,48.93 100.68,102.99 149.84,155.63 15.8,16.93 27.32,37.84 42.97,54.94 85.5,93.43 152.86,199.25 211.11,310.92 23.56,45.15 43.58,92.47 61.38,140.22 22.75,60.96 41.95,123.23 61.85,185.2 7.4,23.01 14,46.51 18.2,70.27 8.4,46.91 14.9,94.17 22.3,141.27 14,89.33 31.6,178.13 39.5,268.39 2.1,24.3 6.2,48.45 9.8,72.6 8.4,56.3 18.2,112.41 25.3,168.87 9,71.8 21.7,142.43 50.9,209.23 1.1,2.38 -1.4,6.27 -3.6,14.98 -41.2,-30.11 -82.2,-56.42 -118.9,-87.7 -57.5,-49.03 -112.29,-101.36 -168.16,-152.39 -137.1,-125.25 -249.56,-269.57 -336.4,-433.84 -14.67,-27.76 -31.53,-54.35 -46.43,-82 -46.85,-87.05 -93.97,-173.96 -139.65,-261.63 -60.2,-115.52 -100.43,-240.13 -164.85,-354.14 -58.3,-103.17 -106.81,-211.83 -161.87,-316.9 -58.27,-111.19 -118.92,-221.14 -178.98,-331.4 -73.43,-134.82 -145.9,-270.23 -231.99,-397.68 -2.87,-4.25 -4.77,-9.15 -9.09,-17.58 z m -3712.46,102.78 c -2.74,1.24 -5.49,2.47 -8.22,3.71 -38.84,-29.26 -77.2,-59.17 -116.58,-87.67 -146.37,-105.95 -287,-217.75 -407.93,-353.79 -126.93,-142.8 -252.49,-286.32 -362.97,-442.49 -41.54,-58.72 -72.06,-121.79 -86.42,-192.72 -8.06,-39.87 -17.25,-79.7 -29.17,-118.56 -31.09,-101.42 -55.13,-204.43 -71.5,-309.12 -12.56,-80.32 -28.69,-160.47 -15.67,-242.74 8,-50.55 12.65,-101.61 19.49,-152.34 23.68,-175.68 60.89,-347.99 119.95,-515.68 30.08,-85.42 56.43,-172.59 77.58,-260.62 37,-153.99 100.8,-297.07 167.81,-439.21 4.6,-9.77 8.19,-22.18 27.09,-22.42 0,13.17 1.01,25.42 -0.15,37.45 -17.32,181.11 -5.89,360.48 33.9,537.87 12.47,55.53 30.5,109.84 42.59,165.46 24.77,113.88 56.01,225.58 98.63,334.25 84.84,216.36 213.35,407.45 343.01,597.96 2.61,3.85 5.64,7.42 8.58,11.03 120.95,148.86 259.01,280.13 409.63,398.5 9.62,7.55 18.86,15.58 26.1,21.59 -29.06,30.87 -56.44,58.96 -82.71,88.05 -50.28,55.69 -90.38,118.41 -121.61,186.36 -24.73,53.78 -49.89,107.88 -68,164.04 -15.91,49.36 -24.58,101.44 -32.22,152.94 -7.14,48.19 -14.5,97.56 -11.44,145.76 4.62,72.8 18.03,145.06 28.07,217.5 3.48,25.04 8.08,49.93 12.16,74.89 z M 6188.57,3649.54 c 5.54,4.06 11.4,7.75 16.55,12.25 58.65,51.34 116.64,103.46 175.96,154.02 34.51,29.4 71.2,56.25 106.75,84.43 25.48,20.21 50.66,40.8 76.1,61.06 7.24,5.77 14.57,11.63 22.53,16.33 53.08,31.31 106.06,62.82 159.68,93.2 27.3,15.46 54.72,31.87 84.06,42.31 75.08,26.74 141.72,69.5 211.7,106 55.64,29.03 112.6,55.62 169.76,81.55 20.87,9.47 44.62,12.4 66.01,20.93 91.68,36.59 181.88,76.56 279.38,97.21 131.31,27.81 263.52,31.01 395.82,15.43 59.65,-7.03 118.51,-23.71 176.7,-39.72 95.24,-26.21 190.09,-54.03 284.24,-83.9 61.95,-19.65 122.36,-44.16 183.51,-66.33 10.9,-3.96 22.1,-7.05 33.11,-10.72 7.67,-2.55 16.18,-3.98 22.66,-8.37 14.39,-9.71 30.62,-20.03 28.34,-40.51 -2.39,-21.3 -20.75,-30.12 -37.5,-37.81 -6.05,-2.77 -16.59,-0.94 -22.8,2.67 -55.2,32.13 -115.71,33.09 -176.43,29.8 -72.07,-3.88 -144.09,-9.71 -211.63,-39 -1.07,-0.46 -2.18,-1.04 -3.3,-1.1 -50.31,-2.43 -92.06,-30.35 -137.56,-46.88 -22.69,-8.24 -44.18,-20.74 -64.77,-33.62 -39.44,-24.69 -78.73,-49.8 -116.5,-76.94 -74.47,-53.51 -159.48,-81.77 -247.32,-99.77 -91.86,-18.83 -184.46,-41.47 -279.67,-18.82 -45.25,10.77 -90.81,20.2 -136.23,30.22 -6.81,1.49 -13.58,3.31 -20.46,4.33 -70.12,10.35 -139.97,24.27 -210.46,29.89 -83.24,6.62 -167.19,8.76 -250,-7.72 -18.11,-3.6 -35.99,-9.66 -53.09,-16.72 -37.61,-15.5 -75.08,-31.48 -111.78,-48.99 -21.85,-10.43 -42.17,-24.09 -63.11,-36.42 -4,-2.35 -7.29,-6.45 -11.52,-7.78 -48.6,-15.27 -87.39,-48.06 -128.7,-75.25 -42.43,-27.93 -81.84,-61.52 -118.51,-96.86 -62.83,-60.56 -123.06,-123.86 -183.1,-187.23 -15.78,-16.65 -27.8,-37.18 -39.89,-56.95 -20.56,-33.63 -39.8,-68.06 -59.58,-102.17 -1.74,-3.02 -3.75,-5.97 -4.98,-9.2 -34.67,-90.93 -93.81,-168.25 -142.44,-251.19 -48.73,-83.12 -107.55,-160.35 -162.28,-239.94 -14.5,-21.08 -30.82,-40.93 -45.12,-62.14 -11.25,-16.68 -26.31,-25.55 -45.66,-28.81 -25.17,-4.25 -40.81,7.13 -43.01,32.34 -1.73,19.82 7.49,35.65 18.58,51.19 79.79,111.79 156.12,225.84 223.03,345.95 6.06,48.75 47.89,75 70.76,113.08 43.12,71.81 84.45,144.73 125.27,217.88 29.48,52.81 57.79,106.33 84.87,160.41 12.3,24.58 26.01,49.77 19.74,79.7 -1.07,5.07 1.72,11.51 4.14,16.65 18.78,39.73 15.54,81.57 12.92,123.53 -1.59,25.47 -2.66,51.04 -2.42,76.55 0.27,30.49 -7.79,57.92 -28.45,80.23 -24.47,26.43 -49.16,52.91 -76.03,76.83 -32.13,28.59 -66.73,54.44 -100.16,81.6 -10.83,8.81 -22.68,16.83 -31.8,27.21 -64.25,73.13 -146.76,124.7 -219.99,187.2 -38.06,32.48 -77.42,63.47 -116.52,94.71 -22.62,18.08 -45.91,35.32 -71.76,55.15 -21.4,-18.49 -42.67,-34.62 -61.32,-53.36 -136.85,-137.43 -263.16,-283 -349.88,-458.75 -7.71,-15.64 -15.6,-31.39 -25.34,-45.78 -67.9,-100.43 -99.81,-214.55 -125.27,-330.83 -6.41,-29.27 -8.28,-60.09 -8,-90.16 1,-109.42 3.53,-218.84 6.19,-328.24 0.4,-16.1 2.47,-32.79 7.44,-48.02 25.25,-77.39 50.79,-154.73 78.02,-231.44 24.58,-69.27 60.08,-131.28 125.91,-170.63 5.85,-3.5 10.4,-9.27 15.33,-14.2 117.92,-118.02 245.8,-224.41 378.39,-325.4 63.9,-48.67 126.79,-98.64 190.52,-147.54 32.27,-24.76 47.03,-57.06 44.1,-97.18 -2.84,-38.79 -25.59,-51.55 -59.41,-33.75 -11.3,5.95 -22.09,12.93 -32.81,19.93 -110.16,71.8 -220.28,143.7 -330.38,215.59 -167.23,109.2 -311.43,245.3 -438.32,397.51 -126.86,152.19 -279.65,261.41 -465.39,326.08 -149.31,51.98 -299,102.86 -448.95,152.95 -72.16,24.12 -147.16,35.32 -223.03,37.64 -129.15,3.96 -258.35,6.59 -387.55,8.69 -98.23,1.6 -194.35,-17.93 -291.31,-30 -140.36,-17.47 -275.47,-56.46 -411.81,-91 -79.23,-20.08 -159.83,-30.48 -241.64,-32.48 -65.16,-1.6 -130.27,-5.45 -195.43,-7.25 -138.43,-3.81 -273.7,16.94 -406.71,54.17 -92.8,25.98 -173.21,72.88 -240.52,142.16 -98.47,101.34 -189.86,207.57 -254.78,334.89 -40.81,80.02 -94.53,151.81 -154.05,219.58 -32.85,37.42 -59.7,80.17 -88.61,120.97 -11.37,16.04 -13.53,34.58 -7.9,53.46 8.01,26.83 36.89,35.9 57.86,17.02 11.95,-10.77 21.88,-24.17 31.08,-37.52 55.42,-80.44 127,-140.54 215.45,-183.13 200.64,-96.6 405.32,-180.8 622.75,-233.14 311.13,-74.91 625.55,-107.08 945.37,-89.26 63.52,3.54 127.83,-2.72 191.53,-7.67 91.62,-7.13 183.2,-15.62 274.47,-26.35 174.89,-20.56 345.11,-63.7 515.07,-108.45 145.75,-38.39 282.65,-100.01 422.15,-154.91 81.17,-31.95 161.81,-65.21 242.99,-97.09 20.28,-7.96 41.75,-12.9 68.33,-20.95 -3.48,12.48 -4.63,19.82 -7.49,26.44 -100.94,233.13 -217.16,458.37 -350.82,674.45 -86.47,139.76 -201.87,248.77 -349.47,322.78 -58.23,29.2 -115.58,60.17 -173.98,89.02 -89.95,44.42 -183.16,79.6 -281.55,101.43 -152.1,33.75 -303.19,72.24 -455.7,103.93 -79.64,16.54 -159.93,28.98 -238.17,52.47 -30.79,9.25 -64.1,10.84 -96.46,14 -115.75,11.33 -231.69,20.83 -347.36,32.95 -107.69,11.29 -214.09,30.12 -318.88,58.34 -173.37,46.69 -326.64,128.4 -452.44,257.65 -73.84,75.86 -150.47,149.89 -216.61,232.17 -145.54,181.04 -218.28,390.51 -219.49,623.31 -0.51,100.84 -14.76,199.37 -38.52,297.01 -11.54,47.44 -21.55,95.28 -31.35,143.12 -6.59,32.17 -0.53,46.2 21.34,55.82 22.62,9.96 47.3,2.26 63.36,-21.88 8.28,-12.46 12.94,-27.25 20.24,-40.44 16.81,-30.37 32.91,-61.26 51.76,-90.35 19.59,-30.24 42.35,-58.42 63.25,-87.84 55.55,-78.19 118.71,-149.1 192.61,-210.8 39.23,-32.75 76.56,-68.29 111.5,-105.62 238.96,-255.31 521,-448.51 840.3,-589.44 130.82,-57.75 259.1,-121.25 389.86,-179.17 102.05,-45.2 206.29,-85.43 309.26,-128.57 80.7,-33.82 155.62,-78.04 230.08,-124.01 185.11,-114.32 372.17,-225.5 558.66,-337.59 28.98,-17.42 29.49,-16.56 54.33,-10.06 -7.98,12.32 -14.32,24.29 -22.67,34.64 -52.62,65.24 -108.12,128.31 -158.01,195.56 -67.56,91.08 -151.67,163.56 -242.75,228.87 -181.72,130.31 -367.75,253.75 -566.13,357.91 -46.22,24.26 -90.52,52.88 -133.16,83.1 -75,53.15 -150.1,106.56 -221.16,164.75 -46.51,38.1 -88.65,82.49 -127.98,128.16 -72.22,83.86 -145.82,166.06 -224.51,244.06 -136.12,134.9 -248.29,289.5 -360.4,444.27 -77.67,107.24 -130.21,228.22 -196.79,341.44 -105.55,179.5 -180.87,372.2 -245.61,569.35 -10.14,30.9 -18.34,62.5 -26.13,94.1 -20.59,83.57 -43.46,166.75 -59.71,251.18 -13.59,70.61 -21.47,142.57 -27.61,214.3 -7.36,85.79 -12.02,171.93 -14.1,258.01 -0.89,36.8 7.39,73.88 12.08,110.77 13.78,108.51 22.26,218.07 43.16,325.19 28.46,145.86 31.48,293.73 47.45,440.5 6.91,63.59 13.43,127.25 22.25,190.58 4.67,33.55 17.32,46.89 36.84,48 17.32,0.98 37.29,-15.56 45.71,-42.23 6.6,-20.93 9.94,-42.98 13.58,-64.72 12.09,-72.28 21.59,-145.05 35.98,-216.86 17.79,-88.77 54.46,-170 105.23,-245.38 27.21,-40.42 51.5,-83.09 73.88,-126.41 100.73,-195.01 180.9,-397.95 234.78,-611.13 28.59,-113.14 46.19,-227.98 60.4,-343.53 7.96,-64.68 17.42,-129.24 23.26,-194.11 3.75,-41.55 0.26,-83.72 3.33,-125.37 4.79,-64.86 7.46,-130.47 19.95,-194.01 19.72,-100.34 41.08,-201.05 71.97,-298.36 70.37,-221.64 177.08,-425.37 327.67,-603.62 71.28,-84.38 149.69,-162.72 224.18,-244.42 152.18,-166.9 303.87,-334.26 455.8,-501.4 43.25,-47.58 89.55,-91.67 146.53,-122.78 18.04,-9.85 37.06,-17.92 60.51,-22.64 -3.07,6.61 -5.83,13.37 -9.25,19.79 -41.54,78.06 -81.24,157.2 -133.95,228.75 -6.16,8.37 -10.87,17.9 -15.61,27.22 -116.24,228.12 -203.29,466.4 -258.7,716.86 -40.31,182.15 -73.16,365.31 -86.8,551.15 -9.78,133.24 -26.32,266.29 -18.02,400.68 11.73,189.67 33.49,377.81 72.46,563.92 7.61,36.35 10.31,73.7 16.38,110.41 3.96,23.96 6.8,48.8 15.5,71.16 50.15,129.01 99.54,258.42 154.11,385.58 26.93,62.74 63.54,121.44 97.42,181.04 25.86,45.5 54.81,89.24 81.48,134.3 56.76,95.88 127.22,179.48 209.19,255.58 148.42,137.79 292.76,279.99 437.87,421.32 64.46,62.78 117.61,135.13 167.94,209.5 7.83,11.57 16.26,22.72 24.32,34.12 10.51,14.88 24.46,22.36 42.15,15.6 17.21,-6.59 30.29,-18.84 30.88,-38.5 0.41,-13.79 -0.72,-28.19 -4.39,-41.43 -33.17,-119.94 -65.38,-240.19 -101.15,-359.37 -47.74,-159.06 -112.97,-310.28 -209.71,-446.68 -58.58,-82.59 -114.6,-167 -173.62,-249.26 -85.48,-119.11 -139.87,-252.16 -175.52,-392.87 -38.92,-153.69 -63.53,-309.54 -66.99,-468.93 -4.23,-195.11 -37.9,-386.9 -85,-575.72 -31.77,-127.37 -73.23,-252.33 -110,-378.47 -36.18,-124.12 -63.95,-250.15 -83.37,-377.98 -9.38,-61.69 -3.35,-122.92 4.66,-184.34 11.74,-90.1 33.99,-177.99 51.59,-266.82 42.63,-215 145.35,-398.39 276.6,-568.93 48.98,-63.63 99.64,-125.98 149.23,-189.14 51.85,-66.04 106.04,-129.88 169.38,-185.37 10.23,-8.97 21.06,-17.25 37.04,-22.26 -3.19,11.94 -5.67,24.11 -9.69,35.76 -20.98,60.76 -32.8,123.23 -41.99,186.86 -7.95,55.03 -23.88,108.95 -37.14,163.16 -41.73,170.59 -88.12,340.18 -124.32,511.93 -22.97,108.99 -34.39,220.81 -44.84,331.94 -11.75,124.76 10.44,246 56.47,362.5 15.8,40 32.3,79.92 51.61,118.3 38.92,77.37 68.21,157.78 87.3,242.29 45.86,203.13 121.49,395.76 211.52,582.74 158.74,329.63 347.28,640.12 594.63,912.22 94.74,104.22 185.26,212.43 290.15,307 34.56,31.16 70.16,61.24 106.18,90.72 84.66,69.31 170.12,137.64 254.78,206.96 100.87,82.6 184.18,181.41 256.58,288.93 111.15,165.04 225.18,328.3 323.4,501.71 9.72,17.16 20.14,34.3 32.8,49.29 8.62,10.22 20.78,20.92 33.06,23.59 11.63,2.53 27.28,-2.3 37.87,-9.06 12,-7.63 17.03,-22 10.63,-37.15 -10.4,-24.62 -20.02,-49.65 -31.72,-73.66 -43.85,-90.06 -85.8,-180.92 -113.02,-277.6 -7.16,-25.43 -12.52,-52.54 -12.03,-78.75 1.86,-100.03 5.42,-200.06 10.28,-300 5.87,-120.64 -3.24,-239.54 -34.87,-356.38 -2.74,-10.11 -6.1,-20.18 -7.52,-30.49 -14.09,-102.35 -55.2,-193.76 -109.6,-280.62 -51.88,-82.84 -99.25,-168.53 -151.99,-250.78 -26.18,-40.84 -56.94,-79.76 -90.9,-114.38 -82.36,-83.95 -168.38,-164.32 -262.79,-234.84 -20.19,-15.09 -24.01,-29.87 -18.17,-53.3 7.26,-29.18 8.67,-59.77 14.72,-89.32 7.66,-37.44 13.91,-75.75 27.14,-111.33 20.63,-55.5 42.32,-111.42 71.2,-162.88 66.01,-117.61 115.08,-243.88 186.17,-358.7 18.35,-29.64 38.32,-58.26 56.99,-87.71 14.26,-22.49 26.97,-45.98 41.62,-68.21 11.95,-18.14 25.76,-35.05 39.97,-54.16 93.57,58.11 190.98,103.37 275.43,170.06 43.28,34.18 79.29,74.75 112.18,119 27.66,37.23 58.88,71.92 89.91,106.49 13.48,15.01 32.47,18.65 51.3,9.58 20.62,-9.94 33.29,-27.82 30.84,-50.34 -1.5,-13.89 -9.96,-28.36 -18.8,-39.88 -30.46,-39.71 -63.05,-77.78 -93.72,-117.33 -28.53,-36.78 -56.34,-74.16 -83.21,-112.17 -52.04,-73.57 -95.34,-151.49 -118.39,-239.66 -8.81,-33.69 -19.85,-67.06 -33.14,-99.22 -9,-21.8 -4.41,-36.85 10.21,-53.35 47.06,-53.09 93.66,-106.6 139.42,-160.82 21.69,-25.71 41.11,-53.34 61.48,-80.16 19.52,-25.71 38.93,-51.5 60.68,-80.27 45.76,107.28 94.24,208.45 104.94,321.42 3.6,37.88 0.69,76.64 -2.17,114.78 -2.1,28.18 -4.02,55.66 6.29,82.61 10.45,27.32 30.59,43.55 50.44,40.54 21.01,-3.19 37.14,-23.05 40.19,-50.73 1.4,-12.69 2.73,-25.67 1.63,-38.3 -5.02,-57.89 6.55,-113.39 21.34,-168.79 28.77,-107.87 56.61,-215.99 84.82,-324.01 0.88,-3.37 2.14,-6.76 2.35,-10.19 8.02,-131.66 15.23,-263.74 -36.06,-389.31 -23.19,-56.79 -29.79,-110.28 -15.3,-171.71 22.37,-94.83 34.41,-192.14 49.65,-288.59 4.87,-30.9 5.2,-62.49 9.18,-93.56 1.52,-11.87 7.41,-23.17 12.25,-37.49 20.15,14.86 23.89,33.12 30.54,50.02 8.04,20.41 17.64,40.2 26.64,60.22 0.95,2.1 2.62,3.87 3.69,5.92 27.12,52.48 53.9,105.13 81.43,157.38 12.44,23.61 26.43,46.39 39.62,69.6 24.1,42.43 47.61,85.21 72.41,127.22 10.5,17.79 23.96,33.81 35.49,51.02 27.17,40.61 55.1,80.78 80.45,122.5 11.31,18.63 16.46,40.89 25.6,60.96 23.62,51.89 48.57,103.19 71.56,155.33 7.87,17.85 12.34,37.34 16.96,56.42 8.47,35 14.38,70.69 24.17,105.3 12.44,44.05 20.18,88.08 18.53,134.17 -1.03,28.88 3.88,57.93 4.63,86.94 1.84,70.19 -12.48,138.86 -21.46,207.97 -3.92,30.11 -14.53,58.69 -34.71,82.73 -4.41,5.25 -8.12,11.59 -10.39,18.04 -19.98,56.63 -54.05,105.33 -85.94,155.38 -13.66,21.46 -23.68,45.21 -36.8,67.05 -17.29,28.8 -33.73,58.56 -54.57,84.69 -45.7,57.28 -96.42,110.67 -140.43,169.17 -41.18,54.75 -76.17,114.14 -114.23,171.25 -13.53,20.3 -28.07,39.92 -42.2,59.81 -2.01,2.85 -4.5,5.37 -6.46,8.25 -104.52,154.2 -204.12,310.82 -272.64,485.64 -26.45,67.46 -47.04,136.03 -61.79,206.3 -8.28,39.45 -13.9,81.35 -9.92,121.07 6.57,65.63 16.87,131.81 34.75,195.17 22.05,78.11 52.95,153.77 81.19,230.06 7.62,20.56 17.16,41.22 29.89,58.92 28.22,39.24 47.26,82.57 63.72,127.44 1.2,3.27 2.25,6.7 4.06,9.64 42.92,69.85 53.48,150.61 75.67,227.32 10.85,37.58 32.71,63.02 65.18,80.7 35.09,-19.53 40.12,-29.84 29.62,-64.21 -36.54,-119.56 -42.44,-242.19 -37.36,-365.93 2.32,-56.88 1.83,-114.13 8.49,-170.52 13.08,-110.64 17.25,-222.67 47.27,-330.93 2.17,-7.81 3.89,-16.06 3.88,-24.1 -0.19,-76.85 29.43,-147.35 46.52,-220.51 10.3,-44.12 19.91,-88.46 32.06,-132.08 7.45,-26.74 19.3,-52.25 28.8,-78.45 3.54,-9.78 6.95,-19.78 8.87,-29.97 5.78,-30.89 13.05,-60.6 27.45,-89.47 13.79,-27.67 18.16,-59.88 29.48,-89 11.32,-29.09 26.26,-56.76 39.32,-85.19 8.69,-18.89 17.26,-37.84 25.16,-57.06 8.84,-21.49 17.03,-43.25 25.21,-65 14.26,-37.97 28.1,-76.1 42.55,-114 4.96,-12.98 10.4,-25.93 17.07,-38.09 11.74,-21.42 22.93,-43.46 37.32,-63.05 53.11,-72.25 75.58,-156.01 93.84,-241.59 1.21,-5.69 2.23,-11.6 4.66,-16.8 42.84,-91.94 54.29,-192.11 76.27,-289.53 4.09,-18.15 9.59,-36.13 11.84,-54.51 2.93,-24.02 3.7,-48.34 4.54,-72.56 0.64,-18.59 -1.24,-37.3 0.04,-55.82 3.67,-53.25 11.69,-106.41 11.86,-159.63 0.19,-67.27 -5.03,-134.62 -21.65,-200.41 -2.28,-8.98 -4.34,-18.03 -6,-27.14 -0.32,-1.73 1.69,-3.89 4.38,-9.54 13.58,13.89 26.89,26.35 38.88,39.97 55.5,63.04 113.92,122.91 182.07,172.61 8.43,6.14 17.52,12.45 23.46,20.73 26.39,36.77 63.02,61.66 98.89,87.48 80.49,57.96 153.79,124.29 225.43,192.61 8.41,8.03 16.33,16.94 25.9,23.32 63.39,42.28 99.66,102.46 117.54,175.17 12.77,51.95 25.51,103.91 38.7,155.76 4.31,16.88 8.89,33.85 15.34,49.99 11.52,28.83 12.78,57.96 11.89,88.84 -0.96,33.31 6.13,66.82 9.49,100.26 3.73,37.06 6.99,74.17 10.84,111.22 6.48,62.13 -8.19,122.62 -14.02,183.78 -5.28,55.51 -11.32,111.02 -28.1,164.54 -31.28,99.72 -59.47,200.61 -95.66,298.54 -41.91,113.4 -91.99,223.76 -136.7,336.17 -23.16,58.25 -40.01,118.94 -71.02,174.1 -7.85,13.96 -11.59,30.37 -16.31,45.92 -17.26,56.72 -34.22,113.53 -51.1,170.36 -4.62,15.58 -9.96,31.14 -12.59,47.1 -20.39,124.03 -38.75,248.35 -44.06,374.14 -1.23,29.02 -2.01,58.3 0.42,87.18 6.54,77.6 11.3,155.63 23.56,232.41 12.86,80.54 38.91,158.33 75.09,231.71 29.46,59.74 68.28,112.93 119.19,157.41 78.05,68.15 155.7,136.98 210.4,227.07 10.21,16.8 24.33,31.18 36.31,46.91 15.03,19.75 26.01,40.91 27,66.75 1.24,32.2 22.23,50.19 49.7,61.06 22.08,8.73 43.64,-5.35 43.62,-28.94 0,-14.74 -2.34,-30.61 -8.12,-44.04 -27.57,-63.97 -56.02,-127.58 -85.4,-190.74 -31.72,-68.15 -51.83,-140.21 -62.66,-213.66 -17.48,-118.47 -28.61,-237.88 -42.34,-356.9 -0.53,-4.61 -1.19,-9.48 -0.29,-13.93 12.74,-62.74 -9.32,-124.52 -4.56,-187.28 4.73,-62.64 4.62,-125.64 7.78,-188.42 3.04,-60.44 7.43,-120.8 11.58,-181.17 0.56,-8.04 1.89,-16.49 5.02,-23.82 17.4,-40.66 15.19,-84.18 20.46,-126.76 9.85,-79.51 23.11,-158.6 34.15,-237.98 3.99,-28.69 5.62,-57.72 8.44,-86.58 7.23,-74.01 14.22,-148.05 22.01,-222 2.07,-19.6 6.92,-38.89 10.11,-58.39 5.8,-35.46 11.01,-71.01 17.06,-106.42 2.73,-16.02 6.48,-31.88 10.41,-47.66 21.45,-86.07 35.27,-173.25 39,-261.97 0.78,-18.59 2.21,-37.21 4.63,-55.65 6.52,-49.73 8.62,-99.14 4.62,-149.56 -5.62,-70.58 -5,-141.64 -8.09,-212.45 -0.85,-19.55 -5.13,-38.99 -8.28,-58.4 -2.22,-13.73 -6.05,-27.25 -7.66,-41.03 -4.33,-37.07 -12.45,-72.83 -24.14,-108.6 -17.7,-54.06 -29.73,-109.96 -44.06,-165.11 -5.2,-20.02 -10.1,-40.11 -16.79,-66.79 12.05,7.05 20.04,10.18 26.13,15.51 63.92,55.93 127.57,112.2 191.25,168.42 10.47,9.24 21.13,18.29 31.09,28.07 48.13,47.23 96.55,94.17 143.9,142.17 47.42,48.06 93.07,97.88 140.61,145.81 92.88,93.62 179.19,192.47 251.05,303.49 17.04,26.33 38.65,49.76 55.07,76.43 31.65,51.43 63.34,103.05 91.02,156.65 80.6,156.03 163.87,310.78 229.63,474.09 17.33,43 35.32,87.64 62.76,124.21 40.32,53.76 60.28,117.28 95.32,173.36 35.05,56.08 63.83,116.25 93.3,175.64 36.7,73.95 70.58,149.29 107.01,223.38 26.16,53.2 53.86,105.69 82.06,157.85 31.95,59.1 65.24,117.49 97.94,176.18 2.83,5.08 6.13,9.95 8.48,15.25 47.4,106.94 125.53,192.19 198.45,281.11 26.55,32.37 52.65,65.14 80.22,96.61 14.47,16.52 32.94,29.53 47.44,46.02 75.32,85.62 167.63,150.51 259.03,217.11 87.2,63.66 172.2,130.58 257.5,196.96 16.8,13.07 32.6,22.64 53.8,13.56 15.8,-6.8 20.7,-20.22 11.4,-33.66 -36.8,-53.49 -70.4,-109.75 -112.4,-158.93 -43.4,-50.97 -63.9,-109.85 -79.3,-172.01 -6.1,-24.66 -9.7,-50.65 -9.5,-75.99 0.4,-42.28 -8.7,-82.78 -16,-123.85 -9.6,-53.78 -17.3,-107.91 -25.8,-161.88 -13,-82.59 -30.2,-164.8 -37.9,-247.89 -7.8,-84.16 -36.1,-163.27 -50,-245.71 -3.6,-21.6 -11.7,-42.63 -19.2,-63.37 -37.8,-104.05 -83.9,-204.8 -138.25,-300.79 -43.32,-76.57 -90.74,-151.59 -152.1,-216.6 -42.29,-44.8 -79.62,-94.24 -120.82,-140.13 -32.61,-36.33 -65.64,-72.76 -102.13,-105.02 -94.99,-83.98 -184.7,-174.18 -287.91,-248.62 -71.7,-51.72 -142.78,-104.35 -215.61,-154.43 -89.16,-61.3 -180.21,-119.83 -269.68,-180.68 -31.7,-21.56 -61.16,-46.4 -91.63,-69.77 -81.22,-62.27 -162.58,-124.01 -238.15,-193.7 -39.96,-36.86 -82.89,-70.98 -121.1,-110.01 -16.18,-16.54 -30.03,-35.36 -45.33,-52.79 -9.95,-11.34 -20.14,-22.54 -31.02,-32.96 -56.21,-53.87 -114.45,-105.76 -168.6,-161.62 -65.74,-67.82 -136.29,-129.85 -208.74,-190.21 -49.06,-40.86 -94.92,-85.56 -141.73,-129.07 -7.98,-7.42 -13.49,-17.49 -23.39,-30.66 23.99,0 42.3,-2.06 60,0.38 55.19,7.61 110.2,16.61 165.17,25.68 68.79,11.34 137.72,22.05 206.16,35.29 75.3,14.57 150.79,29.14 224.94,48.49 63.94,16.68 126.12,40.13 189.1,60.49 48.48,15.67 97.36,30.17 145.39,47.11 40.46,14.27 79.97,31.24 119.86,47.13 7.55,3.01 14.59,8.19 22.38,9.63 80.21,14.77 145.74,64.03 219.85,93.23 111.5,43.93 208.97,111.66 301.69,186.53 22.64,18.28 45.52,36.28 67.93,54.85 10.73,8.9 22.99,17.25 30.44,28.56 24.32,36.93 60.66,60.44 93.08,88.52 32.51,28.16 70.04,53.61 93.79,88.2 55.26,80.48 134.51,138.39 192.57,215.93 29.75,39.72 67.1,73.75 100.98,110.39 6.31,6.82 12.88,13.46 18.6,20.76 46.66,59.48 93.06,119.24 139.86,178.62 34.2,43.3 74.5,79.92 120.8,110 25.4,16.44 49.2,35.39 74.8,51.41 26.6,16.6 53.4,33.73 82,45.87 78.4,33.17 153.4,72.33 227.2,114.71 63.4,36.47 129.1,69.21 194.9,101.44 20.4,10.02 44,15.22 66.7,18.57 26.3,3.87 38.3,-11.57 33.3,-38.13 -1.3,-6.82 -2,-14.74 -5.8,-19.94 -30.5,-40.64 -54.4,-85.22 -96.3,-118.37 -32.8,-25.9 -54.9,-65.24 -81.5,-98.84 -4.3,-5.4 -5.8,-13.49 -10.8,-17.83 -41.7,-36.4 -66.5,-83.05 -83.1,-134.84 -0.3,-1.07 -1,-2.11 -1.7,-3 -57,-69.96 -93.2,-152.72 -139.6,-229.17 -39.1,-64.42 -72.3,-132.39 -108.4,-198.67 -12.2,-22.4 -24.7,-44.61 -37.8,-66.56 -6.5,-10.98 -14.3,-21.21 -21.6,-31.72 -39.8,-57.23 -79.4,-114.63 -119.7,-171.47 -6.5,-9.04 -16.4,-15.73 -25,-23.08 -9.7,-8.22 -20.7,-15.03 -29.6,-24.02 -35,-35.5 -69.2,-71.74 -104,-107.38 -5.6,-5.67 -12.7,-10.02 -19.4,-14.33 -58.78,-37.37 -117.66,-74.53 -176.4,-111.91 -7.83,-4.99 -14.42,-12.31 -22.68,-16.2 -91.61,-43.1 -168.23,-113.02 -264.5,-147.7 -4.34,-1.56 -8.83,-3.47 -12.4,-6.3 -63.71,-50.42 -141.97,-68 -215.95,-94.86 -25.96,-9.43 -54.25,-12.38 -81.37,-18.75 -40.67,-9.56 -81.3,-19.26 -121.82,-29.4 -42.1,-10.54 -84.2,-17.44 -127.74,-8.81 -9.96,1.98 -20.81,-0.44 -31.23,-1.07 -125.45,-7.71 -250.96,-14.52 -376.31,-23.6 -65.85,-4.78 -131.41,-13.65 -197.1,-20.53 -43.94,-4.6 -87.8,-11.29 -131.85,-12.95 -122.34,-4.59 -243.32,-21.2 -364.15,-38.98 -63.11,-9.29 -126.31,-19.32 -188.53,-33.17 -72.37,-16.11 -145.21,-31.83 -206.69,-78.68 -41.56,-31.66 -84.39,-62.22 -129.37,-88.65 -85.16,-50.08 -153.81,-119.96 -226.32,-184.87 -50.77,-45.45 -97.13,-96.3 -141.8,-147.9 -26.37,-30.45 -45.73,-67 -68.04,-100.92 -5.11,-7.76 -7.73,-18.01 -14.4,-23.71 -47.8,-40.81 -69.96,-104.36 -124.36,-139.35 -7.37,-4.75 -12.6,-13.64 -17.4,-21.48 -27.96,-45.61 -56.46,-90.94 -82.81,-137.49 -14.21,-25.1 -23.87,-52.75 -36.8,-78.64 -11.92,-23.87 -25.47,-46.92 -38.3,-70.33 -13.79,-25.14 -27.58,-50.27 -36.76,-78.97 4.23,4 8.65,7.81 12.64,12.04 9.55,10.13 17.56,22.24 28.54,30.41 71.77,53.39 141.73,109.37 225.56,144.43 86.86,36.32 173.25,73.91 258.69,113.44 65.39,30.25 132.03,56.56 200.69,78.08 50.97,15.99 101.68,32.78 152.61,48.89 148.51,46.96 296.52,95.61 445.81,139.97 91.29,27.12 184.19,49.4 279.8,56.77 6.95,0.54 13.87,1.98 20.83,2.11 112.78,2.09 225.32,6.55 338.39,-0.38 70.16,-4.3 142.1,2.91 211.91,13.63 172.04,26.44 336.49,81.23 498.06,144.83 37.85,14.9 75.73,29.77 112.98,46.06 28.97,12.66 57.79,17.85 87.87,5.8 10.38,-4.16 23.59,-6.48 24.02,-21.65 0.4,-14.29 -2.06,-26.5 -15.63,-36.19 -47.16,-33.68 -93.45,-68.57 -139.86,-103.28 -8.35,-6.24 -16.09,-13.46 -23.37,-20.95 -41.27,-42.5 -82.31,-85.22 -123.44,-127.85 -1.62,-1.68 -3.17,-3.44 -4.93,-4.95 -66.94,-57.55 -133.57,-115.46 -200.99,-172.45 -40.75,-34.46 -82.48,-67.79 -124.27,-100.99 -16.29,-12.95 -33.11,-25.69 -51.17,-35.87 -44.59,-25.12 -89.38,-50.07 -135.43,-72.29 -22.69,-10.94 -48.36,-15.75 -72.72,-23.2 -22.06,-6.74 -44.15,-13.36 -66.27,-19.87 -7.76,-2.3 -15.57,-5.4 -23.51,-5.95 -42.85,-2.94 -85.73,-5.6 -128.63,-7.56 -57.99,-2.64 -116.06,-7.18 -173.99,-5.96 -48.62,1.02 -97.16,8.59 -145.63,14.16 -91.18,10.48 -182.32,21.3 -273.41,32.57 -76.01,9.4 -152.5,12.71 -228.43,25.31 -67.46,11.19 -136.81,6.37 -205.53,2.27 -75.46,-4.51 -151.23,-3.69 -226.71,-8.01 -79.39,-4.54 -156.52,-18.72 -226.25,-61.5 -55.37,-33.97 -110.92,-68.4 -169.36,-96.42 -50.87,-24.38 -96.71,-55.24 -141.54,-88.28 -12.76,-9.4 -25.51,-21.51 -32.74,-35.29 -41.53,-79.21 -89.82,-154.78 -123.22,-238.48 -15.4,-38.58 -24.84,-77.46 -28.71,-117.9 -4.03,-41.76 -26.69,-76.21 -40.33,-114.17 -6.55,-18.28 -12.88,-36.7 -18.04,-55.4 -3.7,-13.38 -2.5,-28.67 -8.31,-40.81 -31.01,-64.9 -32.54,-135.39 -39.42,-204.54 -9.6,-96.66 -30.89,-190.41 -60.51,-282.66 -13.97,-43.55 -22.09,-89.04 -52.6,-125.99 -8.25,-9.97 -10.48,-24.89 -15.48,-37.55 2,-1.53 3.99,-3.08 5.98,-4.62"
         style="fill:#f1a378;fill-opacity:1;fill-rule:nonzero;stroke:none"
         id="path12" /></g></g></svg>
