<?xml version="1.0" encoding="UTF-8" standalone="no"?>
<!-- Created with Inkscape (http://www.inkscape.org/) -->

<svg
   version="1.1"
   id="svg2"
   xml:space="preserve"
   width="1600"
   height="1600"
   viewBox="0 0 1600 1600"
   sodipodi:docname="RG-WeddingPhotographer.eps"
   xmlns:inkscape="http://www.inkscape.org/namespaces/inkscape"
   xmlns:sodipodi="http://sodipodi.sourceforge.net/DTD/sodipodi-0.dtd"
   xmlns="http://www.w3.org/2000/svg"
   xmlns:svg="http://www.w3.org/2000/svg"><defs
     id="defs6" /><sodipodi:namedview
     id="namedview4"
     pagecolor="#ffffff"
     bordercolor="#666666"
     borderopacity="1.0"
     inkscape:pageshadow="2"
     inkscape:pageopacity="0.0"
     inkscape:pagecheckerboard="0" /><g
     id="g8"
     inkscape:groupmode="layer"
     inkscape:label="ink_ext_XXXXXX"
     transform="matrix(1.3333333,0,0,-1.3333333,0,1600)"><g
       id="g10"
       transform="scale(0.1)"><path
         d="M 999.988,7181.43 1635.45,6906.02 945.434,6812.51 926.582,6684.3 1559.92,6394.4 872.027,6314 l -21.722,-146.44 882.275,114.73 23.85,160.81 -591.89,271.41 644.82,88.14 23.72,160.8 -811.62,364.54 -21.472,-146.56"
         style="fill:#d48c1a;fill-opacity:1;fill-rule:nonzero;stroke:none"
         id="path12" /><path
         d="m 2148.15,8142.87 121.6,-57.68 -222.72,-469.29 -773.17,366.42 220.1,464.05 121.23,-57.56 -159.68,-336.95 201.13,-95.26 146.56,309.12 120.48,-57.18 -146.69,-309.12 208.74,-99 162.42,342.45"
         style="fill:#d48c1a;fill-opacity:1;fill-rule:nonzero;stroke:none"
         id="path14" /><path
         d="m 2667.15,9330.36 c 182.41,-153.56 215.49,-408.49 63.43,-589.14 l -216.86,-256.94 -654.43,551.44 216.6,257.06 c 152.06,180.65 407.99,192.01 591.26,37.58 m -87.38,-104 c -129.97,109.74 -296.14,104.12 -400.88,-20.35 l -126.1,-149.44 448.82,-378.15 126.09,149.56 c 104.75,124.34 81.15,289.76 -47.93,398.38"
         style="fill:#d48c1a;fill-opacity:1;fill-rule:nonzero;stroke:none"
         id="path16" /><path
         d="m 3727.74,10128.7 c 132.58,-197.77 94,-451.7 -101.75,-582.91 l -279.03,-187.02 -475.91,710.13 278.91,187 c 195.63,131.2 444.57,71.5 577.78,-127.2 m -112.49,-75.7 c -94.63,141.2 -255.56,181.7 -390.51,91.3 l -162.3,-108.9 326.47,-486.74 162.17,108.74 c 135.08,90.39 158.06,255.68 64.17,395.6"
         style="fill:#d48c1a;fill-opacity:1;fill-rule:nonzero;stroke:none"
         id="path18" /><path
         d="m 4232.11,10811.6 307.87,-798.5 -131.34,-50.62 -307.74,798.52 131.21,50.6"
         style="fill:#d48c1a;fill-opacity:1;fill-rule:nonzero;stroke:none"
         id="path20" /><path
         d="m 5545.3,11117.9 -138.7,-21.9 88.77,-572.8 -487.03,511.1 -108.61,-16.7 131.21,-844.7 138.7,21.7 -89.01,572.9 487.27,-511.2 108.36,16.9 -130.96,844.7"
         style="fill:#d48c1a;fill-opacity:1;fill-rule:nonzero;stroke:none"
         id="path22" /><path
         d="m 7061,10557.1 c -30.84,-231.2 -220.11,-373.4 -468.18,-340.2 -263.91,35.3 -425.34,256.6 -392.75,499.8 32.58,243.4 248.93,413.9 503.11,379.9 160.93,-21.4 287.03,-120.8 342.34,-250.2 l -128.97,-53.1 c -33.21,84.5 -120.1,153 -231.46,167.8 -179.15,24 -322.85,-91.1 -345.95,-264.2 -22.72,-170.8 83.02,-319.2 273.04,-344.7 153.68,-20.6 258.92,46.7 299.63,157.1 l -283.4,37.9 16.73,124.8 423.72,-56.7 -7.86,-58.2"
         style="fill:#d48c1a;fill-opacity:1;fill-rule:nonzero;stroke:none"
         id="path24" /><path
         d="m 8875.39,9924.23 c -84.15,-133.21 -253.19,-172.41 -389.52,-86.39 l -147.81,93.13 -156.44,-247.94 -118.85,74.91 456.31,723.06 266.55,-168.1 c 136.2,-85.9 174.53,-254.5 89.76,-388.67 m -118.86,74.91 c 46.32,73.16 28.97,157.96 -41.32,202.36 l -147.69,93.1 -158.93,-252.1 147.57,-93.17 c 70.16,-44.2 154.81,-22.48 200.37,49.81"
         style="fill:#d48c1a;fill-opacity:1;fill-rule:nonzero;stroke:none"
         id="path26" /><path
         d="m 9994.73,9244.85 -628.35,-580.4 -95.38,103.37 271.91,251.18 -248.69,269.05 -271.92,-251.19 -95.38,103.37 628.23,580.15 95.38,-103.12 -257.56,-237.83 248.69,-269.29 257.56,237.96 95.51,-103.25"
         style="fill:#d48c1a;fill-opacity:1;fill-rule:nonzero;stroke:none"
         id="path28" /><path
         d="m 10025,8483.51 c 221.9,110.36 484.5,21.1 594.2,-199.88 110.3,-221.97 22.1,-484.02 -200,-594.26 -222,-110.24 -484,-22.22 -594.24,199.88 -109.62,220.97 -22.1,484.02 200.04,594.26 m 331.8,-668.42 c 157.5,78.28 216,254.68 139.8,407.74 -76,153.19 -251.7,213.11 -409.2,134.96 -157.58,-78.15 -215.88,-254.56 -139.84,-407.62 75.94,-153.31 251.64,-213.23 409.24,-135.08"
         style="fill:#d48c1a;fill-opacity:1;fill-rule:nonzero;stroke:none"
         id="path30" /><path
         d="m 10843.4,7298.96 48.1,-237.21 -706.6,-143.32 27.8,-137.83 706.6,143.32 48.1,-235.83 131.7,26.59 -123.8,610.99 -131.9,-26.71"
         style="fill:#d48c1a;fill-opacity:1;fill-rule:nonzero;stroke:none"
         id="path32" /><path
         d="m 10729.6,6165.59 c 247.6,-14.61 431.4,-222.6 416.9,-469.04 -14.6,-247.57 -221.3,-431.34 -469,-416.86 -247.7,14.61 -431.5,221.23 -417,469.04 14.6,246.45 221.5,431.34 469.1,416.86 m -43.9,-745.7 c 175.8,-10.23 314,113.99 324.1,284.78 10,170.78 -112.7,310.36 -288.4,320.59 -175.8,10.36 -314.1,-113.73 -324.1,-284.52 -10,-170.91 112.6,-310.36 288.4,-320.85"
         style="fill:#d48c1a;fill-opacity:1;fill-rule:nonzero;stroke:none"
         id="path34" /><path
         d="m 10210.3,3940.82 c -218.5,82.65 -314.13,299.25 -225.61,533.58 94.51,249.32 346.81,356.44 576.51,269.42 229.9,-87.14 347,-336.71 256.2,-576.78 -57.7,-151.94 -183.2,-252.06 -321.9,-276.79 l -22.3,137.96 c 89.9,12.98 176.3,82.15 216.1,187.27 64,169.29 -15.5,335.33 -179,397.25 -161.2,61.05 -330,-8.36 -397.8,-187.89 -55.2,-145.19 -13.3,-262.93 85,-327.59 l 101.3,267.54 117.7,-44.57 -151.5,-400.12 -54.7,20.72"
         style="fill:#d48c1a;fill-opacity:1;fill-rule:nonzero;stroke:none"
         id="path36" /><path
         d="m 9677,3245.33 99.26,133.21 -249.7,186.02 83.9,112.49 685.44,-510.61 -204.4,-274.29 c -91.1,-122.36 -262.06,-147.32 -384.54,-56.06 -88,65.67 -124.84,179.91 -97.24,284.27 l -382.41,42.7 92.02,123.47 z m 200,57.93 -120.22,-161.42 c -44.57,-59.81 -29.47,-145.7 34.21,-193.01 64.66,-48.2 150.31,-37.58 194.88,22.1 l 120.33,161.67 -229.2,170.66"
         style="fill:#d48c1a;fill-opacity:1;fill-rule:nonzero;stroke:none"
         id="path38" /><path
         d="m 8625.58,2399.03 285.88,225.97 -59.79,172.41 119.85,94.76 286.89,-864.05 -132.46,-104.62 -773.28,479.78 119.1,93.88 z m 118.22,-74.77 346.07,-218.86 -132.96,387.27 z"
         style="fill:#d48c1a;fill-opacity:1;fill-rule:nonzero;stroke:none"
         id="path40" /><path
         d="m 7659.48,1428.6 c -63.42,144.3 -1.24,306.3 146.57,371.1 l 159.93,70.3 -117.85,268.44 128.59,56.55 343.82,-782.99 -288.52,-126.8 c -147.68,-64.8 -308.61,-2.1 -372.54,143.4 m 128.6,56.5 c 35.07,-79.5 114.73,-112.6 190.88,-79.1 l 159.93,70.1 -119.85,273.1 -159.8,-70.2 c -76.28,-33.6 -105.5,-115.7 -71.16,-193.9"
         style="fill:#d48c1a;fill-opacity:1;fill-rule:nonzero;stroke:none"
         id="path42" /><path
         d="m 6844.3,1802.7 56.31,-365.8 -362.43,-55.9 -56.18,366.1 -138.95,-21.4 129.84,-845.399 139.07,21.301 -53.43,346.698 362.43,55.7 53.18,-346.598 138.96,21.2 -130.1,845.598 -138.7,-21.5"
         style="fill:#d48c1a;fill-opacity:1;fill-rule:nonzero;stroke:none"
         id="path44" /><path
         d="m 5299.68,1640.3 376.66,-37.4 -22.85,-229.6 -340.2,33.8 -12.98,-132.6 340.2,-33.7 -21.97,-221.1 -370.79,36.7 -13.11,-133.701 510.49,-50.597 84.14,850.698 -516.48,51.2 -13.11,-133.7"
         style="fill:#d48c1a;fill-opacity:1;fill-rule:nonzero;stroke:none"
         id="path46" /><path
         d="m 4455.22,1686.3 156.43,-55.7 104.5,293.4 132.2,-47.1 -286.51,-805.5 -322.47,114.6 c -143.7,51.4 -217.98,207.4 -166.67,351.4 36.83,103.4 135.33,172.1 243.07,176.5 l -71.41,378.14 144.94,-51.56 z m 114.11,-174.2 -189.64,67.6 c -70.29,24.9 -148.07,-14.9 -174.66,-89.5 -27.09,-76.1 8.49,-154.7 78.65,-179.7 l 189.89,-67.6 95.76,269.2"
         style="fill:#d48c1a;fill-opacity:1;fill-rule:nonzero;stroke:none"
         id="path48" /><path
         d="m 5950.55,6184.04 c 0,0 340.57,664.43 1276.78,866.3 936.21,201.75 1444.21,-6.61 1444.21,-6.61 0,0 -640.46,-676.66 -1396.27,-906.75 -632.58,-192.52 -1324.72,47.06 -1324.72,47.06"
         style="fill:#d48c1a;fill-opacity:1;fill-rule:nonzero;stroke:none"
         id="path50" /><path
         d="m 5318.58,8324.64 c 0,0 -421.47,-924.72 -375.28,-1580.03 46.19,-655.44 511.11,-1247.2 511.11,-1247.2 0,0 352.44,731.46 326.47,1374.29 -25.84,642.7 -462.3,1452.94 -462.3,1452.94"
         style="fill:#d48c1a;fill-opacity:1;fill-rule:nonzero;stroke:none"
         id="path52" /><path
         d="m 5085.47,4784.39 c 0,0 339.95,370.17 755.44,430.59 415.36,60.43 1065.05,-68.04 1065.05,-68.04 0,0 -430.59,-445.69 -910.24,-491.01 -479.66,-45.31 -910.25,128.46 -910.25,128.46"
         style="fill:#d48c1a;fill-opacity:1;fill-rule:nonzero;stroke:none"
         id="path54" /><path
         d="m 4971.24,3998.68 -149.19,0.26 c 0.13,61.04 44.44,1774.04 1643.46,2549.2 C 4991.71,5430.4 4971.24,4012.79 4971.24,3998.68"
         style="fill:#d48c1a;fill-opacity:1;fill-rule:nonzero;stroke:none"
         id="path56" /></g></g></svg>
