<?xml version="1.0" encoding="UTF-8"?><svg id="Layer_2" xmlns="http://www.w3.org/2000/svg" viewBox="0 0 267 448"><g id="Layer_1-2"><path d="M133.5,0h0C59.76996,0,0,59.76999,0,133.5v181c0,73.73001,59.76996,133.5,133.5,133.5h0c73.73004,0,133.5-59.76999,133.5-133.5V133.5C267,59.76999,207.23004,0,133.5,0ZM44.23999,203.25999V96.38h18v36.31999c17.26001-21.14999,45.29999-34.94,76.91003-34.94,15.49243-.02168,30.79669,3.39369,44.81,10l-7.72003,16.24001c-11.60242-5.44023-24.2655-8.244-37.08002-8.21001-42.40997,0-76.90997,29.72-76.90997,66.25v85.99998h-18l-.01001-64.77998Zm179.33002,97.90999c-.00433,49.67249-40.27539,89.93646-89.94788,89.9321-49.66632-.00436-89.92776-40.26578-89.93213-89.9321h19.10999c.46576,39.11557,32.55273,70.44742,71.66827,69.98169,38.45856-.45792,69.5238-31.52313,69.98169-69.98169v-47.31c-26.8714,30.24109-73.17023,32.97272-103.41132,6.10132-30.24109-26.87143-32.97272-73.17024-6.10132-103.41132s73.17023-32.97273,103.41132-6.10132c2.15192,1.91212,4.18921,3.94943,6.10132,6.10132v-43.34999h19.12l.00006,187.96999Z" style="fill:#d6922a;"/><path d="M149.77002,150c-30.50824-.00676-55.24548,24.71956-55.25226,55.22775-.00671,30.50821,24.71954,55.24548,55.22778,55.25226,27.51483,.00607,50.83923-20.23801,54.70447-47.48001v-15.52c-3.88818-27.21959-27.18414-47.44803-54.67999-47.48Z" style="fill:#d6922a;"/></g></svg>