<svg id="Layer_1" data-name="Layer 1" xmlns="http://www.w3.org/2000/svg" width="1200" height="400" viewBox="0 0 1200 400"><defs><style>.cls-1{fill:#b4b6bb;}.cls-2{fill:#d6932a;}.cls-3{fill:none;}</style></defs><path class="cls-1" d="M331,126.78v14c-11.56-.46-24.05,5.39-24.05,23.58v40.84H293.58V128.17H307v13C311.93,130.33,321.33,126.78,331,126.78Z"/><path class="cls-1" d="M415.65,128.17v77.06H402.24V192c-6.17,9.4-16,15.26-29.13,15.26-21.43,0-39-17.73-39-40.54s17.56-40.53,39-40.53c13.1,0,23,5.85,29.13,15.26V128.17ZM402.24,166.7c0-15.72-11.87-27.59-27.43-27.59S347.52,151,347.52,166.7s11.87,27.59,27.29,27.59S402.24,182.42,402.24,166.7Z"/><path class="cls-1" d="M502.72,157.92v47.31H489.31V158.69c0-12.64-7.24-19.73-19.11-19.73-12.33,0-22.35,7.24-22.35,25.43v40.84H434.44V128.17h13.41v11.1c5.71-9.1,14.18-13.1,25-13.1C490.85,126.17,502.72,138.19,502.72,157.92Z"/><path class="cls-1" d="M521.52,128.17h13.41v81.69c0,19.88-10.33,29.59-29.74,28.2V225.11c11.09.93,16.33-3.23,16.33-15.25Zm-2.31-23a9,9,0,1,1,18,0,9,9,0,0,1-18,0Z"/><path class="cls-1" d="M631,128.17v77.06H617.54V192c-6.17,9.4-16,15.26-29.13,15.26-21.42,0-39-17.73-39-40.54s17.57-40.53,39-40.53c13.1,0,23,5.85,29.13,15.26V128.17ZM617.54,166.7c0-15.72-11.87-27.59-27.44-27.59-15.41,0-27.28,11.87-27.28,27.59s11.87,27.59,27.28,27.59C605.67,194.29,617.54,182.42,617.54,166.7Z"/><path class="cls-1" d="M718,157.92v47.31H704.61V158.69c0-12.64-7.24-19.73-19.11-19.73-12.33,0-22.35,7.24-22.35,25.43v40.84H649.74V128.17h13.41v11.1c5.71-9.1,14.18-13.1,25-13.1C706.15,126.17,718,138.19,718,157.92Z"/><path class="cls-1" d="M732.81,105.21a9,9,0,1,1,18,0,9,9,0,0,1-18,0Zm2.31,23h13.41v77.06H735.12Z"/><path class="cls-1" d="M875.52,128.17V202c0,24-19.26,36.06-39.3,36.06-17.26,0-30.21-6.63-36.53-18.8l11.72-6.63c3.54,7.24,10,13,25.12,13,16,0,25.74-9.1,25.74-23.58V191.05c-6.17,9.4-16,15.42-29,15.42-21.88,0-39.3-17.73-39.3-40.23s17.42-40.07,39.3-40.07c13,0,22.81,5.85,29,15.26V128.17Zm-13.25,38.07c0-15.41-11.87-27.28-27.44-27.28s-27.43,11.87-27.43,27.28a27.44,27.44,0,0,0,54.87,0Z"/><path class="cls-1" d="M931.77,126.78v14c-11.56-.46-24,5.39-24,23.58v40.84H894.32V128.17h13.41v13C912.66,130.33,922.06,126.78,931.77,126.78Z"/><path class="cls-1" d="M934.85,166.7a40.61,40.61,0,1,1,40.53,40.54A40.19,40.19,0,0,1,934.85,166.7Zm67.81,0c0-15.56-11.86-27.43-27.28-27.43-15.25,0-27.12,11.87-27.12,27.43s11.87,27.44,27.12,27.44C990.8,194.14,1002.66,182.27,1002.66,166.7Z"/><path class="cls-1" d="M1050.13,141.12v41.77c0,11.71,6.78,10.94,20.5,10.32v12c-23.12,3.09-33.91-3.08-33.91-22.34V141.12h-15.26v-13h15.26V110.6l13.41-4v21.58h20.5v13Z"/><path class="cls-1" d="M1153.24,157.92v47.31h-13.41V158.69c0-12.64-7.25-19.73-19.11-19.73-12.33,0-22.35,7.24-22.35,25.43v40.84H1085V97.35h13.41v41.92c5.7-9.1,14.18-13.1,25-13.1C1141.37,126.17,1153.24,138.19,1153.24,157.92Z"/><path class="cls-2" d="M138,49.22h0a89.87,89.87,0,0,0-89.87,89.87V260.91A89.87,89.87,0,0,0,138,350.78h0a89.88,89.88,0,0,0,89.88-89.87V139.09A89.88,89.88,0,0,0,138,49.22ZM77.94,186V114.09H90.06v24.47C101.68,124.31,120.55,115,141.83,115a70.64,70.64,0,0,1,30.17,6.7l-5.21,10.95a58.29,58.29,0,0,0-25-5.53c-28.55,0-51.77,20-51.77,44.6v57.92H77.94ZM198.66,252a60.55,60.55,0,1,1-121.1,0H90.43a47.68,47.68,0,0,0,95.36,0V220.11a49.31,49.31,0,1,1,0-65.52V125.41h12.87Z"/><path class="cls-2" d="M149,150.17a37.18,37.18,0,1,0,36.81,42.38v-10.4A37.23,37.23,0,0,0,149,150.17Z"/><path class="cls-2" d="M310.15,313.45a21.11,21.11,0,0,1-11.78-3.13,16.74,16.74,0,0,1-6.73-8.52l7.94-4.64q2.76,7.2,10.84,7.2,3.9,0,5.72-1.42a4.44,4.44,0,0,0-.4-7.43,34.32,34.32,0,0,0-7.95-3,49.46,49.46,0,0,1-5.35-1.88,22.89,22.89,0,0,1-4.37-2.53,10.24,10.24,0,0,1-3.33-4,13,13,0,0,1-1.15-5.66,12.6,12.6,0,0,1,4.55-10.19,16.43,16.43,0,0,1,10.93-3.81,18.15,18.15,0,0,1,10.07,2.8A18.73,18.73,0,0,1,325.9,275l-7.81,4.51q-2.82-6.06-9-6.06a7.13,7.13,0,0,0-4.54,1.31,4.15,4.15,0,0,0-1.65,3.4,4.29,4.29,0,0,0,1.85,3.6c1.24.93,3.6,1.92,7.1,3l3.27,1c.74.25,1.75.63,3,1.15a18.67,18.67,0,0,1,3,1.44,25,25,0,0,1,2.39,1.82,9.32,9.32,0,0,1,2,2.36,13.6,13.6,0,0,1,1.72,6.66,12.62,12.62,0,0,1-4.75,10.37Q317.76,313.45,310.15,313.45Z"/><path class="cls-2" d="M376.25,265.38v8.89H363.53V312.5h-9.29V274.27H341.59v-8.89Z"/><path class="cls-2" d="M412.47,313.45q-7.87,0-12.93-4.45a15.08,15.08,0,0,1-5.05-11.91V265.38h9.22v31a7.94,7.94,0,0,0,2.13,5.85q2.12,2.16,6.63,2.16t6.63-2.16a8,8,0,0,0,2.12-5.85v-31h9.29v31.71A15.08,15.08,0,0,1,425.46,309Q420.41,313.44,412.47,313.45Z"/><path class="cls-2" d="M471,265.38a21.49,21.49,0,0,1,16.19,6.8,24.89,24.89,0,0,1,0,33.52A21.45,21.45,0,0,1,471,312.5H452.31V265.38Zm0,38.24a13.08,13.08,0,0,0,10-4.07,16.56,16.56,0,0,0,0-21.21,13.08,13.08,0,0,0-10-4.07H461.6v29.35Z"/><path class="cls-2" d="M513.77,265.38h9.29V312.5h-9.29Z"/><path class="cls-2" d="M584.92,306.34a24.8,24.8,0,1,1,7.13-17.4A23.69,23.69,0,0,1,584.92,306.34ZM556.72,300a15.7,15.7,0,0,0,21.67,0,16.23,16.23,0,0,0,0-22.18,15.59,15.59,0,0,0-21.67,0,16.23,16.23,0,0,0,0,22.18Z"/><path class="cls-2" d="M626.45,313.45a21.11,21.11,0,0,1-11.78-3.13,16.79,16.79,0,0,1-6.73-8.52l7.94-4.64q2.76,7.2,10.84,7.2,3.9,0,5.72-1.42a4.44,4.44,0,0,0-.4-7.43,34.38,34.38,0,0,0-7.94-3,49.7,49.7,0,0,1-5.36-1.88,23.19,23.19,0,0,1-4.37-2.53,10.24,10.24,0,0,1-3.33-4,13,13,0,0,1-1.15-5.66,12.6,12.6,0,0,1,4.55-10.19,16.45,16.45,0,0,1,10.93-3.81,18.15,18.15,0,0,1,10.07,2.8A18.73,18.73,0,0,1,642.2,275l-7.81,4.51q-2.82-6.06-9-6.06a7.13,7.13,0,0,0-4.54,1.31,4.15,4.15,0,0,0-1.65,3.4,4.29,4.29,0,0,0,1.85,3.6c1.24.93,3.6,1.92,7.1,3l3.27,1c.74.25,1.75.63,3,1.15a18.67,18.67,0,0,1,3,1.44,23.82,23.82,0,0,1,2.39,1.82,9.32,9.32,0,0,1,2.05,2.36,13.6,13.6,0,0,1,1.72,6.66,12.62,12.62,0,0,1-4.75,10.37Q634.06,313.45,626.45,313.45Z"/><rect class="cls-3" width="1200" height="400"/></svg>