<svg id="Layer_1" data-name="Layer 1" xmlns="http://www.w3.org/2000/svg" width="1200" height="916" viewBox="0 0 1200 916"><defs><style>.cls-1{fill:none;}.cls-2{fill:#b4b6ba;}.cls-3{fill:#d6922a;}</style></defs><rect class="cls-1" width="1200" height="916"/><path class="cls-2" d="M114,615.93V633.3c-14.31-.57-29.78,6.68-29.78,29.21V713.1H67.61V617.65H84.22v16C90.33,620.32,102,615.93,114,615.93Z"/><path class="cls-2" d="M218.8,617.65V713.1H202.19V696.68c-7.63,11.65-19.85,18.9-36.08,18.9-26.53,0-48.29-22-48.29-50.21s21.76-50.2,48.29-50.2c16.23,0,28.45,7.25,36.08,18.9V617.65Zm-16.61,47.72c0-19.47-14.7-34.17-34-34.17-19.09,0-33.79,14.7-33.79,34.17s14.7,34.17,33.79,34.17C187.49,699.54,202.19,684.84,202.19,665.37Z"/><path class="cls-2" d="M326.65,654.49V713.1H310V655.45c0-15.66-9-24.44-23.67-24.44-15.27,0-27.68,9-27.68,31.5V713.1H242.08V617.65h16.61V631.4c7.07-11.27,17.56-16.23,30.93-16.23C312,615.17,326.65,630.06,326.65,654.49Z"/><path class="cls-2" d="M349.94,617.65h16.61V718.82c0,24.63-12.79,36.66-36.84,34.94v-16c13.74,1.15,20.23-4,20.23-18.9Zm-2.86-28.44a11.17,11.17,0,1,1,22.33,0,11.17,11.17,0,0,1-22.33,0Z"/><path class="cls-2" d="M485.47,617.65V713.1h-16.6V696.68c-7.64,11.65-19.86,18.9-36.08,18.9-26.54,0-48.3-22-48.3-50.21s21.76-50.2,48.3-50.2c16.22,0,28.44,7.25,36.08,18.9V617.65Zm-16.6,47.72c0-19.47-14.7-34.17-34-34.17-19.09,0-33.79,14.7-33.79,34.17s14.7,34.17,33.79,34.17C454.17,699.54,468.87,684.84,468.87,665.37Z"/><path class="cls-2" d="M593.32,654.49V713.1h-16.6V655.45c0-15.66-9-24.44-23.67-24.44-15.28,0-27.69,9-27.69,31.5V713.1h-16.6V617.65h16.6V631.4c7.07-11.27,17.57-16.23,30.93-16.23C578.63,615.17,593.32,630.06,593.32,654.49Z"/><path class="cls-2" d="M611.64,589.21a11.17,11.17,0,1,1,22.34,0,11.17,11.17,0,0,1-22.34,0Zm2.87,28.44h16.6V713.1h-16.6Z"/><path class="cls-2" d="M788.41,617.65v91.44c0,29.78-23.87,44.67-48.68,44.67-21.38,0-37.42-8.21-45.24-23.29l14.5-8.21c4.39,9,12.41,16,31.12,16C760,738.3,772,727,772,709.09V695.54c-7.64,11.64-19.86,19.08-35.89,19.08-27.11,0-48.68-22-48.68-49.82,0-27.68,21.57-49.63,48.68-49.63,16,0,28.25,7.25,35.89,18.9V617.65ZM772,664.8c0-19.09-14.7-33.79-34-33.79s-34,14.7-34,33.79c0,19.28,14.7,34,34,34S772,684.08,772,664.8Z"/><path class="cls-2" d="M858.08,615.93V633.3c-14.32-.57-29.78,6.68-29.78,29.21V713.1H811.69V617.65H828.3v16C834.41,620.32,846.05,615.93,858.08,615.93Z"/><path class="cls-2" d="M861.89,665.37a50.3,50.3,0,1,1,50.21,50.21A49.79,49.79,0,0,1,861.89,665.37Zm84,0c0-19.28-14.7-34-33.79-34-18.9,0-33.6,14.69-33.6,34s14.7,34,33.6,34C931.19,699.35,945.89,684.65,945.89,665.37Z"/><path class="cls-2" d="M1004.68,633.68v51.74c0,14.51,8.4,13.55,25.39,12.79V713.1c-28.64,3.82-42-3.82-42-27.68V633.68h-18.9v-16h18.9V595.89l16.61-5v26.73h25.39v16Z"/><path class="cls-2" d="M1132.39,654.49V713.1h-16.61V655.45c0-15.66-9-24.44-23.67-24.44-15.28,0-27.68,9-27.68,31.5V713.1h-16.61V579.47h16.61V631.4c7.06-11.27,17.56-16.23,30.92-16.23C1117.69,615.17,1132.39,630.06,1132.39,654.49Z"/><path class="cls-3" d="M529,331.23"/><path class="cls-3" d="M600,52h0a133.5,133.5,0,0,0-133.5,133.5v181A133.5,133.5,0,0,0,600,500h0a133.5,133.5,0,0,0,133.5-133.5v-181A133.5,133.5,0,0,0,600,52ZM510.74,255.26V148.38h18V184.7c17.26-21.15,45.3-34.94,76.91-34.94a104.74,104.74,0,0,1,44.81,10L642.74,176a86.8,86.8,0,0,0-37.08-8.21c-42.41,0-76.91,29.72-76.91,66.25v86h-18Zm179.33,97.91a89.94,89.94,0,0,1-179.88,0H529.3a70.83,70.83,0,0,0,141.65,0V305.86a73.25,73.25,0,1,1,0-97.31V165.2h19.12Z"/><path class="cls-3" d="M616.27,202a55.24,55.24,0,1,0,54.68,63V249.48A55.3,55.3,0,0,0,616.27,202Z"/><path class="cls-3" d="M390.55,864q-9.32,0-15.67-4.16a22.31,22.31,0,0,1-9-11.33l10.57-6.18q3.67,9.59,14.42,9.58,5.19,0,7.61-1.88a5.92,5.92,0,0,0-.54-9.9q-3-1.83-10.56-4a64.55,64.55,0,0,1-7.12-2.51,30.85,30.85,0,0,1-5.83-3.36,13.71,13.71,0,0,1-4.43-5.33,17.35,17.35,0,0,1-1.52-7.52q0-8.5,6-13.57a22,22,0,0,1,14.56-5.06,24.22,24.22,0,0,1,13.39,3.72,25,25,0,0,1,9,10.34l-10.39,6q-3.76-8.05-12-8.06a9.43,9.43,0,0,0-6.05,1.75,5.51,5.51,0,0,0-2.19,4.52,5.7,5.7,0,0,0,2.46,4.79c1.64,1.23,4.79,2.55,9.45,4,1.91.59,3.36,1.06,4.34,1.39s2.33.83,4,1.52a24.21,24.21,0,0,1,3.94,1.92,31.33,31.33,0,0,1,3.18,2.42,12.14,12.14,0,0,1,2.73,3.14,17.45,17.45,0,0,1,1.62,3.89,17.83,17.83,0,0,1,.67,5,16.83,16.83,0,0,1-6.32,13.8Q400.67,864,390.55,864Z"/><path class="cls-3" d="M478.5,800v11.83H461.57v50.87H449.21V811.86H432.37V800Z"/><path class="cls-3" d="M526.68,864q-10.48,0-17.2-5.91t-6.71-15.85V800H515v41.2a10.61,10.61,0,0,0,2.82,7.79c1.88,1.92,4.82,2.87,8.82,2.87s6.94-.95,8.82-2.87a10.61,10.61,0,0,0,2.82-7.79V800h12.36v42.19q0,9.93-6.72,15.85T526.68,864Z"/><path class="cls-3" d="M604.6,800a28.56,28.56,0,0,1,21.53,9.05q8.65,9,8.65,22.3t-8.65,22.3a28.56,28.56,0,0,1-21.53,9.05H579.7V800Zm0,50.87a17.37,17.37,0,0,0,13.25-5.41q5.1-5.43,5.1-14.11t-5.1-14.11a17.37,17.37,0,0,0-13.25-5.41H592.06v39Z"/><path class="cls-3" d="M661.46,800h12.36v62.7H661.46Z"/><path class="cls-3" d="M756.13,854.53a33,33,0,1,1,9.49-23.15A31.52,31.52,0,0,1,756.13,854.53Zm-37.53-8.42a20.25,20.25,0,0,0,34.66-14.73,20,20,0,0,0-5.82-14.78,20.77,20.77,0,0,0-28.84,0,21.61,21.61,0,0,0,0,29.51Z"/><path class="cls-3" d="M811.39,864q-9.32,0-15.68-4.16a22.3,22.3,0,0,1-9-11.33l10.56-6.18q3.67,9.59,14.42,9.58c3.47,0,6-.63,7.62-1.88a5.93,5.93,0,0,0-.54-9.9q-3-1.83-10.57-4a65.3,65.3,0,0,1-7.12-2.51,31.1,31.1,0,0,1-5.82-3.36,13.63,13.63,0,0,1-4.43-5.33,17.35,17.35,0,0,1-1.53-7.52,16.79,16.79,0,0,1,6-13.57A21.94,21.94,0,0,1,810,798.78a24.17,24.17,0,0,1,13.39,3.72,25,25,0,0,1,9,10.34l-10.39,6q-3.75-8.05-12-8.06a9.4,9.4,0,0,0-6,1.75,5.49,5.49,0,0,0-2.2,4.52,5.69,5.69,0,0,0,2.47,4.79c1.64,1.23,4.79,2.55,9.44,4,1.91.59,3.36,1.06,4.35,1.39s2.33.83,4,1.52a24.63,24.63,0,0,1,3.94,1.92,33.73,33.73,0,0,1,3.18,2.42,12.54,12.54,0,0,1,2.73,3.14,17.9,17.9,0,0,1,2.28,8.86,16.83,16.83,0,0,1-6.31,13.8Q821.51,864,811.39,864Z"/></svg>